<svg xmlns="http://www.w3.org/2000/svg" xmlns:xlink="http://www.w3.org/1999/xlink" id="Layer_1" width="26.471" height="30" x="0" y="0" enable-background="new 0 0 26.471 30" version="1.1" viewBox="0 0 26.471 30" xml:space="preserve"><g><circle cx="13.235" cy="16.763" r="11.995" fill="#FFF"/></g><path fill="#F33F33" d="M14.761,3.622V2.843h1.084c0.342,0,0.62-0.278,0.62-0.622V0.62C16.467,0.278,16.188,0,15.847,0h-5.221	c-0.341,0-0.621,0.278-0.621,0.621v1.602c0,0.342,0.278,0.622,0.621,0.622h1.084v0.777C5.13,4.382,0,9.982,0,16.766	C0,24.062,5.938,30,13.235,30c7.299,0,13.236-5.939,13.236-13.236C26.471,9.982,21.342,4.382,14.761,3.622z M13.235,27.518	c-5.929,0-10.753-4.824-10.753-10.754c0-5.931,4.824-10.755,10.753-10.755c5.93,0,10.756,4.825,10.756,10.755	S19.163,27.518,13.235,27.518z"/><g><g><g><g><defs><path id="SVGID_1_" d="M5.933,18.743c0-3.452,2.393-6.341,5.607-7.107l0.586-4.086c-4.603,0.55-8.171,4.465-8.171,9.216 c0,4.992,3.944,9.069,8.897,9.272C8.997,25.833,5.933,22.646,5.933,18.743z"/></defs><clipPath id="SVGID_2_"><use overflow="visible" xlink:href="#SVGID_1_"/></clipPath><polygon fill="#FE0600" points="3.955 23.688 9.488 26.037 3.955 26.037" clip-path="url(#SVGID_2_)"/></g></g><g><g><defs><path id="SVGID_3_" d="M5.933,18.743c0-3.452,2.393-6.341,5.607-7.107l0.586-4.086c-4.603,0.55-8.171,4.465-8.171,9.216 c0,4.992,3.944,9.069,8.897,9.272C8.997,25.833,5.933,22.646,5.933,18.743z"/></defs><clipPath id="SVGID_4_"><use overflow="visible" xlink:href="#SVGID_3_"/></clipPath><polygon fill="#FE0600" points="3.955 23.598 9.703 26.037 9.485 26.037 3.955 23.688" clip-path="url(#SVGID_4_)"/></g></g><g><g><defs><path id="SVGID_5_" d="M5.933,18.743c0-3.452,2.393-6.341,5.607-7.107l0.586-4.086c-4.603,0.55-8.171,4.465-8.171,9.216 c0,4.992,3.944,9.069,8.897,9.272C8.997,25.833,5.933,22.646,5.933,18.743z"/></defs><clipPath id="SVGID_6_"><use overflow="visible" xlink:href="#SVGID_5_"/></clipPath><polygon fill="#FE0700" points="3.955 23.503 9.919 26.037 9.703 26.037 3.955 23.598" clip-path="url(#SVGID_6_)"/></g></g><g><g><defs><path id="SVGID_7_" d="M5.933,18.743c0-3.452,2.393-6.341,5.607-7.107l0.586-4.086c-4.603,0.55-8.171,4.465-8.171,9.216 c0,4.992,3.944,9.069,8.897,9.272C8.997,25.833,5.933,22.646,5.933,18.743z"/></defs><clipPath id="SVGID_8_"><use overflow="visible" xlink:href="#SVGID_7_"/></clipPath><polygon fill="#FE0800" points="3.955 23.412 10.14 26.037 9.919 26.037 3.955 23.503" clip-path="url(#SVGID_8_)"/></g></g><g><g><defs><path id="SVGID_9_" d="M5.933,18.743c0-3.452,2.393-6.341,5.607-7.107l0.586-4.086c-4.603,0.55-8.171,4.465-8.171,9.216 c0,4.992,3.944,9.069,8.897,9.272C8.997,25.833,5.933,22.646,5.933,18.743z"/></defs><clipPath id="SVGID_10_"><use overflow="visible" xlink:href="#SVGID_9_"/></clipPath><polygon fill="#FE0900" points="3.955 23.32 10.355 26.037 10.14 26.037 3.955 23.412" clip-path="url(#SVGID_10_)"/></g></g><g><g><defs><path id="SVGID_11_" d="M5.933,18.743c0-3.452,2.393-6.341,5.607-7.107l0.586-4.086c-4.603,0.55-8.171,4.465-8.171,9.216 c0,4.992,3.944,9.069,8.897,9.272C8.997,25.833,5.933,22.646,5.933,18.743z"/></defs><clipPath id="SVGID_12_"><use overflow="visible" xlink:href="#SVGID_11_"/></clipPath><polygon fill="#FE0A00" points="3.955 23.227 10.573 26.037 10.355 26.037 3.955 23.32" clip-path="url(#SVGID_12_)"/></g></g><g><g><defs><path id="SVGID_13_" d="M5.933,18.743c0-3.452,2.393-6.341,5.607-7.107l0.586-4.086c-4.603,0.55-8.171,4.465-8.171,9.216 c0,4.992,3.944,9.069,8.897,9.272C8.997,25.833,5.933,22.646,5.933,18.743z"/></defs><clipPath id="SVGID_14_"><use overflow="visible" xlink:href="#SVGID_13_"/></clipPath><polygon fill="#FE0B00" points="3.955 23.135 10.789 26.037 10.573 26.037 3.955 23.227" clip-path="url(#SVGID_14_)"/></g></g><g><g><defs><path id="SVGID_15_" d="M5.933,18.743c0-3.452,2.393-6.341,5.607-7.107l0.586-4.086c-4.603,0.55-8.171,4.465-8.171,9.216 c0,4.992,3.944,9.069,8.897,9.272C8.997,25.833,5.933,22.646,5.933,18.743z"/></defs><clipPath id="SVGID_16_"><use overflow="visible" xlink:href="#SVGID_15_"/></clipPath><polygon fill="#FE0C00" points="3.955 23.044 11.006 26.037 10.789 26.037 3.955 23.135" clip-path="url(#SVGID_16_)"/></g></g><g><g><defs><path id="SVGID_17_" d="M5.933,18.743c0-3.452,2.393-6.341,5.607-7.107l0.586-4.086c-4.603,0.55-8.171,4.465-8.171,9.216 c0,4.992,3.944,9.069,8.897,9.272C8.997,25.833,5.933,22.646,5.933,18.743z"/></defs><clipPath id="SVGID_18_"><use overflow="visible" xlink:href="#SVGID_17_"/></clipPath><polygon fill="#FE0D00" points="3.955 22.95 11.225 26.037 11.006 26.037 3.955 23.044" clip-path="url(#SVGID_18_)"/></g></g><g><g><defs><path id="SVGID_19_" d="M5.933,18.743c0-3.452,2.393-6.341,5.607-7.107l0.586-4.086c-4.603,0.55-8.171,4.465-8.171,9.216 c0,4.992,3.944,9.069,8.897,9.272C8.997,25.833,5.933,22.646,5.933,18.743z"/></defs><clipPath id="SVGID_20_"><use overflow="visible" xlink:href="#SVGID_19_"/></clipPath><polygon fill="#FE0E00" points="3.955 22.857 11.441 26.037 11.225 26.037 3.955 22.95" clip-path="url(#SVGID_20_)"/></g></g><g><g><defs><path id="SVGID_21_" d="M5.933,18.743c0-3.452,2.393-6.341,5.607-7.107l0.586-4.086c-4.603,0.55-8.171,4.465-8.171,9.216 c0,4.992,3.944,9.069,8.897,9.272C8.997,25.833,5.933,22.646,5.933,18.743z"/></defs><clipPath id="SVGID_22_"><use overflow="visible" xlink:href="#SVGID_21_"/></clipPath><polygon fill="#FE0F00" points="3.955 22.768 11.657 26.037 11.441 26.037 3.955 22.857" clip-path="url(#SVGID_22_)"/></g></g><g><g><defs><path id="SVGID_23_" d="M5.933,18.743c0-3.452,2.393-6.341,5.607-7.107l0.586-4.086c-4.603,0.55-8.171,4.465-8.171,9.216 c0,4.992,3.944,9.069,8.897,9.272C8.997,25.833,5.933,22.646,5.933,18.743z"/></defs><clipPath id="SVGID_24_"><use overflow="visible" xlink:href="#SVGID_23_"/></clipPath><polygon fill="#FE1000" points="3.955 22.674 11.875 26.037 11.657 26.037 3.955 22.768" clip-path="url(#SVGID_24_)"/></g></g><g><g><defs><path id="SVGID_25_" d="M5.933,18.743c0-3.452,2.393-6.341,5.607-7.107l0.586-4.086c-4.603,0.55-8.171,4.465-8.171,9.216 c0,4.992,3.944,9.069,8.897,9.272C8.997,25.833,5.933,22.646,5.933,18.743z"/></defs><clipPath id="SVGID_26_"><use overflow="visible" xlink:href="#SVGID_25_"/></clipPath><polygon fill="#FE1100" points="3.955 22.582 12.093 26.037 11.875 26.037 3.955 22.674" clip-path="url(#SVGID_26_)"/></g></g><g><g><defs><path id="SVGID_27_" d="M5.933,18.743c0-3.452,2.393-6.341,5.607-7.107l0.586-4.086c-4.603,0.55-8.171,4.465-8.171,9.216 c0,4.992,3.944,9.069,8.897,9.272C8.997,25.833,5.933,22.646,5.933,18.743z"/></defs><clipPath id="SVGID_28_"><use overflow="visible" xlink:href="#SVGID_27_"/></clipPath><polygon fill="#FE1200" points="3.955 22.489 12.309 26.037 12.093 26.037 3.955 22.582" clip-path="url(#SVGID_28_)"/></g></g><g><g><defs><path id="SVGID_29_" d="M5.933,18.743c0-3.452,2.393-6.341,5.607-7.107l0.586-4.086c-4.603,0.55-8.171,4.465-8.171,9.216 c0,4.992,3.944,9.069,8.897,9.272C8.997,25.833,5.933,22.646,5.933,18.743z"/></defs><clipPath id="SVGID_30_"><use overflow="visible" xlink:href="#SVGID_29_"/></clipPath><polygon fill="#FE1300" points="3.955 22.398 12.528 26.037 12.309 26.037 3.955 22.489" clip-path="url(#SVGID_30_)"/></g></g><g><g><defs><path id="SVGID_31_" d="M5.933,18.743c0-3.452,2.393-6.341,5.607-7.107l0.586-4.086c-4.603,0.55-8.171,4.465-8.171,9.216 c0,4.992,3.944,9.069,8.897,9.272C8.997,25.833,5.933,22.646,5.933,18.743z"/></defs><clipPath id="SVGID_32_"><use overflow="visible" xlink:href="#SVGID_31_"/></clipPath><polygon fill="#FE1400" points="3.955 22.307 12.744 26.037 12.528 26.037 3.955 22.398" clip-path="url(#SVGID_32_)"/></g></g><g><g><defs><path id="SVGID_33_" d="M5.933,18.743c0-3.452,2.393-6.341,5.607-7.107l0.586-4.086c-4.603,0.55-8.171,4.465-8.171,9.216 c0,4.992,3.944,9.069,8.897,9.272C8.997,25.833,5.933,22.646,5.933,18.743z"/></defs><clipPath id="SVGID_34_"><use overflow="visible" xlink:href="#SVGID_33_"/></clipPath><polygon fill="#FE1500" points="3.955 22.213 12.853 25.99 12.853 26.037 12.744 26.037 3.955 22.307" clip-path="url(#SVGID_34_)"/></g></g><g><g><defs><path id="SVGID_35_" d="M5.933,18.743c0-3.452,2.393-6.341,5.607-7.107l0.586-4.086c-4.603,0.55-8.171,4.465-8.171,9.216 c0,4.992,3.944,9.069,8.897,9.272C8.997,25.833,5.933,22.646,5.933,18.743z"/></defs><clipPath id="SVGID_36_"><use overflow="visible" xlink:href="#SVGID_35_"/></clipPath><polygon fill="#FE1600" points="3.955 22.12 12.853 25.896 12.853 25.99 3.955 22.213" clip-path="url(#SVGID_36_)"/></g></g><g><g><defs><path id="SVGID_37_" d="M5.933,18.743c0-3.452,2.393-6.341,5.607-7.107l0.586-4.086c-4.603,0.55-8.171,4.465-8.171,9.216 c0,4.992,3.944,9.069,8.897,9.272C8.997,25.833,5.933,22.646,5.933,18.743z"/></defs><clipPath id="SVGID_38_"><use overflow="visible" xlink:href="#SVGID_37_"/></clipPath><polygon fill="#FE1700" points="3.955 22.029 12.853 25.807 12.853 25.896 3.955 22.12" clip-path="url(#SVGID_38_)"/></g></g><g><g><defs><path id="SVGID_39_" d="M5.933,18.743c0-3.452,2.393-6.341,5.607-7.107l0.586-4.086c-4.603,0.55-8.171,4.465-8.171,9.216 c0,4.992,3.944,9.069,8.897,9.272C8.997,25.833,5.933,22.646,5.933,18.743z"/></defs><clipPath id="SVGID_40_"><use overflow="visible" xlink:href="#SVGID_39_"/></clipPath><polygon fill="#FE1800" points="3.955 21.936 12.853 25.713 12.853 25.807 3.955 22.029" clip-path="url(#SVGID_40_)"/></g></g><g><g><defs><path id="SVGID_41_" d="M5.933,18.743c0-3.452,2.393-6.341,5.607-7.107l0.586-4.086c-4.603,0.55-8.171,4.465-8.171,9.216 c0,4.992,3.944,9.069,8.897,9.272C8.997,25.833,5.933,22.646,5.933,18.743z"/></defs><clipPath id="SVGID_42_"><use overflow="visible" xlink:href="#SVGID_41_"/></clipPath><polygon fill="#FE1900" points="3.955 21.846 12.853 25.622 12.853 25.713 3.955 21.936" clip-path="url(#SVGID_42_)"/></g></g><g><g><defs><path id="SVGID_43_" d="M5.933,18.743c0-3.452,2.393-6.341,5.607-7.107l0.586-4.086c-4.603,0.55-8.171,4.465-8.171,9.216 c0,4.992,3.944,9.069,8.897,9.272C8.997,25.833,5.933,22.646,5.933,18.743z"/></defs><clipPath id="SVGID_44_"><use overflow="visible" xlink:href="#SVGID_43_"/></clipPath><polygon fill="#FE1A00" points="3.955 21.752 12.853 25.527 12.853 25.622 3.955 21.846" clip-path="url(#SVGID_44_)"/></g></g><g><g><defs><path id="SVGID_45_" d="M5.933,18.743c0-3.452,2.393-6.341,5.607-7.107l0.586-4.086c-4.603,0.55-8.171,4.465-8.171,9.216 c0,4.992,3.944,9.069,8.897,9.272C8.997,25.833,5.933,22.646,5.933,18.743z"/></defs><clipPath id="SVGID_46_"><use overflow="visible" xlink:href="#SVGID_45_"/></clipPath><polygon fill="#FE1B00" points="3.955 21.66 12.853 25.438 12.853 25.527 3.955 21.752" clip-path="url(#SVGID_46_)"/></g></g><g><g><defs><path id="SVGID_47_" d="M5.933,18.743c0-3.452,2.393-6.341,5.607-7.107l0.586-4.086c-4.603,0.55-8.171,4.465-8.171,9.216 c0,4.992,3.944,9.069,8.897,9.272C8.997,25.833,5.933,22.646,5.933,18.743z"/></defs><clipPath id="SVGID_48_"><use overflow="visible" xlink:href="#SVGID_47_"/></clipPath><polygon fill="#FE1C00" points="3.955 21.568 12.853 25.343 12.853 25.438 3.955 21.66" clip-path="url(#SVGID_48_)"/></g></g><g><g><defs><path id="SVGID_49_" d="M5.933,18.743c0-3.452,2.393-6.341,5.607-7.107l0.586-4.086c-4.603,0.55-8.171,4.465-8.171,9.216 c0,4.992,3.944,9.069,8.897,9.272C8.997,25.833,5.933,22.646,5.933,18.743z"/></defs><clipPath id="SVGID_50_"><use overflow="visible" xlink:href="#SVGID_49_"/></clipPath><polygon fill="#FE1D01" points="3.955 21.477 12.853 25.252 12.853 25.343 3.955 21.568" clip-path="url(#SVGID_50_)"/></g></g><g><g><defs><path id="SVGID_51_" d="M5.933,18.743c0-3.452,2.393-6.341,5.607-7.107l0.586-4.086c-4.603,0.55-8.171,4.465-8.171,9.216 c0,4.992,3.944,9.069,8.897,9.272C8.997,25.833,5.933,22.646,5.933,18.743z"/></defs><clipPath id="SVGID_52_"><use overflow="visible" xlink:href="#SVGID_51_"/></clipPath><polygon fill="#FE1E01" points="3.955 21.385 12.853 25.16 12.853 25.252 3.955 21.477" clip-path="url(#SVGID_52_)"/></g></g><g><g><defs><path id="SVGID_53_" d="M5.933,18.743c0-3.452,2.393-6.341,5.607-7.107l0.586-4.086c-4.603,0.55-8.171,4.465-8.171,9.216 c0,4.992,3.944,9.069,8.897,9.272C8.997,25.833,5.933,22.646,5.933,18.743z"/></defs><clipPath id="SVGID_54_"><use overflow="visible" xlink:href="#SVGID_53_"/></clipPath><polygon fill="#FE1F01" points="3.955 21.291 12.853 25.068 12.853 25.16 3.955 21.385" clip-path="url(#SVGID_54_)"/></g></g><g><g><defs><path id="SVGID_55_" d="M5.933,18.743c0-3.452,2.393-6.341,5.607-7.107l0.586-4.086c-4.603,0.55-8.171,4.465-8.171,9.216 c0,4.992,3.944,9.069,8.897,9.272C8.997,25.833,5.933,22.646,5.933,18.743z"/></defs><clipPath id="SVGID_56_"><use overflow="visible" xlink:href="#SVGID_55_"/></clipPath><polygon fill="#FE2001" points="3.955 21.199 12.853 24.975 12.853 25.068 3.955 21.291" clip-path="url(#SVGID_56_)"/></g></g><g><g><defs><path id="SVGID_57_" d="M5.933,18.743c0-3.452,2.393-6.341,5.607-7.107l0.586-4.086c-4.603,0.55-8.171,4.465-8.171,9.216 c0,4.992,3.944,9.069,8.897,9.272C8.997,25.833,5.933,22.646,5.933,18.743z"/></defs><clipPath id="SVGID_58_"><use overflow="visible" xlink:href="#SVGID_57_"/></clipPath><polygon fill="#FE2101" points="3.955 21.105 12.853 24.884 12.853 24.975 3.955 21.199" clip-path="url(#SVGID_58_)"/></g></g><g><g><defs><path id="SVGID_59_" d="M5.933,18.743c0-3.452,2.393-6.341,5.607-7.107l0.586-4.086c-4.603,0.55-8.171,4.465-8.171,9.216 c0,4.992,3.944,9.069,8.897,9.272C8.997,25.833,5.933,22.646,5.933,18.743z"/></defs><clipPath id="SVGID_60_"><use overflow="visible" xlink:href="#SVGID_59_"/></clipPath><polygon fill="#FE2201" points="3.955 21.014 12.853 24.792 12.853 24.884 3.955 21.105" clip-path="url(#SVGID_60_)"/></g></g><g><g><defs><path id="SVGID_61_" d="M5.933,18.743c0-3.452,2.393-6.341,5.607-7.107l0.586-4.086c-4.603,0.55-8.171,4.465-8.171,9.216 c0,4.992,3.944,9.069,8.897,9.272C8.997,25.833,5.933,22.646,5.933,18.743z"/></defs><clipPath id="SVGID_62_"><use overflow="visible" xlink:href="#SVGID_61_"/></clipPath><polygon fill="#FE2301" points="3.955 20.923 12.853 24.698 12.853 24.792 3.955 21.014" clip-path="url(#SVGID_62_)"/></g></g><g><g><defs><path id="SVGID_63_" d="M5.933,18.743c0-3.452,2.393-6.341,5.607-7.107l0.586-4.086c-4.603,0.55-8.171,4.465-8.171,9.216 c0,4.992,3.944,9.069,8.897,9.272C8.997,25.833,5.933,22.646,5.933,18.743z"/></defs><clipPath id="SVGID_64_"><use overflow="visible" xlink:href="#SVGID_63_"/></clipPath><polygon fill="#FE2401" points="3.955 20.831 12.853 24.607 12.853 24.698 3.955 20.923" clip-path="url(#SVGID_64_)"/></g></g><g><g><defs><path id="SVGID_65_" d="M5.933,18.743c0-3.452,2.393-6.341,5.607-7.107l0.586-4.086c-4.603,0.55-8.171,4.465-8.171,9.216 c0,4.992,3.944,9.069,8.897,9.272C8.997,25.833,5.933,22.646,5.933,18.743z"/></defs><clipPath id="SVGID_66_"><use overflow="visible" xlink:href="#SVGID_65_"/></clipPath><polygon fill="#FE2501" points="3.955 20.736 12.853 24.516 12.853 24.607 3.955 20.831" clip-path="url(#SVGID_66_)"/></g></g><g><g><defs><path id="SVGID_67_" d="M5.933,18.743c0-3.452,2.393-6.341,5.607-7.107l0.586-4.086c-4.603,0.55-8.171,4.465-8.171,9.216 c0,4.992,3.944,9.069,8.897,9.272C8.997,25.833,5.933,22.646,5.933,18.743z"/></defs><clipPath id="SVGID_68_"><use overflow="visible" xlink:href="#SVGID_67_"/></clipPath><polygon fill="#FE2601" points="3.955 20.646 12.853 24.422 12.853 24.516 3.955 20.736" clip-path="url(#SVGID_68_)"/></g></g><g><g><defs><path id="SVGID_69_" d="M5.933,18.743c0-3.452,2.393-6.341,5.607-7.107l0.586-4.086c-4.603,0.55-8.171,4.465-8.171,9.216 c0,4.992,3.944,9.069,8.897,9.272C8.997,25.833,5.933,22.646,5.933,18.743z"/></defs><clipPath id="SVGID_70_"><use overflow="visible" xlink:href="#SVGID_69_"/></clipPath><polygon fill="#FE2701" points="3.955 20.555 12.853 24.328 12.853 24.422 3.955 20.646" clip-path="url(#SVGID_70_)"/></g></g><g><g><defs><path id="SVGID_71_" d="M5.933,18.743c0-3.452,2.393-6.341,5.607-7.107l0.586-4.086c-4.603,0.55-8.171,4.465-8.171,9.216 c0,4.992,3.944,9.069,8.897,9.272C8.997,25.833,5.933,22.646,5.933,18.743z"/></defs><clipPath id="SVGID_72_"><use overflow="visible" xlink:href="#SVGID_71_"/></clipPath><polygon fill="#FE2801" points="3.955 20.461 12.853 24.238 12.853 24.328 3.955 20.555" clip-path="url(#SVGID_72_)"/></g></g><g><g><defs><path id="SVGID_73_" d="M5.933,18.743c0-3.452,2.393-6.341,5.607-7.107l0.586-4.086c-4.603,0.55-8.171,4.465-8.171,9.216 c0,4.992,3.944,9.069,8.897,9.272C8.997,25.833,5.933,22.646,5.933,18.743z"/></defs><clipPath id="SVGID_74_"><use overflow="visible" xlink:href="#SVGID_73_"/></clipPath><polygon fill="#FE2901" points="3.955 20.369 12.853 24.146 12.853 24.238 3.955 20.461" clip-path="url(#SVGID_74_)"/></g></g><g><g><defs><path id="SVGID_75_" d="M5.933,18.743c0-3.452,2.393-6.341,5.607-7.107l0.586-4.086c-4.603,0.55-8.171,4.465-8.171,9.216 c0,4.992,3.944,9.069,8.897,9.272C8.997,25.833,5.933,22.646,5.933,18.743z"/></defs><clipPath id="SVGID_76_"><use overflow="visible" xlink:href="#SVGID_75_"/></clipPath><polygon fill="#FE2A01" points="3.955 20.277 12.853 24.055 12.853 24.146 3.955 20.369" clip-path="url(#SVGID_76_)"/></g></g><g><g><defs><path id="SVGID_77_" d="M5.933,18.743c0-3.452,2.393-6.341,5.607-7.107l0.586-4.086c-4.603,0.55-8.171,4.465-8.171,9.216 c0,4.992,3.944,9.069,8.897,9.272C8.997,25.833,5.933,22.646,5.933,18.743z"/></defs><clipPath id="SVGID_78_"><use overflow="visible" xlink:href="#SVGID_77_"/></clipPath><polygon fill="#FE2B01" points="3.955 20.186 12.853 23.961 12.853 24.055 3.955 20.277" clip-path="url(#SVGID_78_)"/></g></g><g><g><defs><path id="SVGID_79_" d="M5.933,18.743c0-3.452,2.393-6.341,5.607-7.107l0.586-4.086c-4.603,0.55-8.171,4.465-8.171,9.216 c0,4.992,3.944,9.069,8.897,9.272C8.997,25.833,5.933,22.646,5.933,18.743z"/></defs><clipPath id="SVGID_80_"><use overflow="visible" xlink:href="#SVGID_79_"/></clipPath><polygon fill="#FE2C01" points="3.955 20.093 12.853 23.869 12.853 23.961 3.955 20.186" clip-path="url(#SVGID_80_)"/></g></g><g><g><defs><path id="SVGID_81_" d="M5.933,18.743c0-3.452,2.393-6.341,5.607-7.107l0.586-4.086c-4.603,0.55-8.171,4.465-8.171,9.216 c0,4.992,3.944,9.069,8.897,9.272C8.997,25.833,5.933,22.646,5.933,18.743z"/></defs><clipPath id="SVGID_82_"><use overflow="visible" xlink:href="#SVGID_81_"/></clipPath><polygon fill="#FE2D01" points="3.955 20 12.853 23.777 12.853 23.869 3.955 20.093" clip-path="url(#SVGID_82_)"/></g></g><g><g><defs><path id="SVGID_83_" d="M5.933,18.743c0-3.452,2.393-6.341,5.607-7.107l0.586-4.086c-4.603,0.55-8.171,4.465-8.171,9.216 c0,4.992,3.944,9.069,8.897,9.272C8.997,25.833,5.933,22.646,5.933,18.743z"/></defs><clipPath id="SVGID_84_"><use overflow="visible" xlink:href="#SVGID_83_"/></clipPath><polygon fill="#FE2E01" points="3.955 19.908 12.853 23.684 12.853 23.777 3.955 20" clip-path="url(#SVGID_84_)"/></g></g><g><g><defs><path id="SVGID_85_" d="M5.933,18.743c0-3.452,2.393-6.341,5.607-7.107l0.586-4.086c-4.603,0.55-8.171,4.465-8.171,9.216 c0,4.992,3.944,9.069,8.897,9.272C8.997,25.833,5.933,22.646,5.933,18.743z"/></defs><clipPath id="SVGID_86_"><use overflow="visible" xlink:href="#SVGID_85_"/></clipPath><polygon fill="#FE2F01" points="3.955 19.816 12.853 23.594 12.853 23.684 3.955 19.908" clip-path="url(#SVGID_86_)"/></g></g><g><g><defs><path id="SVGID_87_" d="M5.933,18.743c0-3.452,2.393-6.341,5.607-7.107l0.586-4.086c-4.603,0.55-8.171,4.465-8.171,9.216 c0,4.992,3.944,9.069,8.897,9.272C8.997,25.833,5.933,22.646,5.933,18.743z"/></defs><clipPath id="SVGID_88_"><use overflow="visible" xlink:href="#SVGID_87_"/></clipPath><polygon fill="#FE3001" points="3.955 19.725 12.853 23.501 12.853 23.594 3.955 19.816" clip-path="url(#SVGID_88_)"/></g></g><g><g><defs><path id="SVGID_89_" d="M5.933,18.743c0-3.452,2.393-6.341,5.607-7.107l0.586-4.086c-4.603,0.55-8.171,4.465-8.171,9.216 c0,4.992,3.944,9.069,8.897,9.272C8.997,25.833,5.933,22.646,5.933,18.743z"/></defs><clipPath id="SVGID_90_"><use overflow="visible" xlink:href="#SVGID_89_"/></clipPath><polygon fill="#FE3101" points="3.955 19.631 12.853 23.408 12.853 23.501 3.955 19.725" clip-path="url(#SVGID_90_)"/></g></g><g><g><defs><path id="SVGID_91_" d="M5.933,18.743c0-3.452,2.393-6.341,5.607-7.107l0.586-4.086c-4.603,0.55-8.171,4.465-8.171,9.216 c0,4.992,3.944,9.069,8.897,9.272C8.997,25.833,5.933,22.646,5.933,18.743z"/></defs><clipPath id="SVGID_92_"><use overflow="visible" xlink:href="#SVGID_91_"/></clipPath><polygon fill="#FE3201" points="3.955 19.54 12.853 23.314 12.853 23.408 3.955 19.631" clip-path="url(#SVGID_92_)"/></g></g><g><g><defs><path id="SVGID_93_" d="M5.933,18.743c0-3.452,2.393-6.341,5.607-7.107l0.586-4.086c-4.603,0.55-8.171,4.465-8.171,9.216 c0,4.992,3.944,9.069,8.897,9.272C8.997,25.833,5.933,22.646,5.933,18.743z"/></defs><clipPath id="SVGID_94_"><use overflow="visible" xlink:href="#SVGID_93_"/></clipPath><polygon fill="#FE3301" points="3.955 19.447 12.853 23.225 12.853 23.314 3.955 19.54" clip-path="url(#SVGID_94_)"/></g></g><g><g><defs><path id="SVGID_95_" d="M5.933,18.743c0-3.452,2.393-6.341,5.607-7.107l0.586-4.086c-4.603,0.55-8.171,4.465-8.171,9.216 c0,4.992,3.944,9.069,8.897,9.272C8.997,25.833,5.933,22.646,5.933,18.743z"/></defs><clipPath id="SVGID_96_"><use overflow="visible" xlink:href="#SVGID_95_"/></clipPath><polygon fill="#FE3401" points="3.955 19.355 12.853 23.131 12.853 23.225 3.955 19.447" clip-path="url(#SVGID_96_)"/></g></g><g><g><defs><path id="SVGID_97_" d="M5.933,18.743c0-3.452,2.393-6.341,5.607-7.107l0.586-4.086c-4.603,0.55-8.171,4.465-8.171,9.216 c0,4.992,3.944,9.069,8.897,9.272C8.997,25.833,5.933,22.646,5.933,18.743z"/></defs><clipPath id="SVGID_98_"><use overflow="visible" xlink:href="#SVGID_97_"/></clipPath><polygon fill="#FE3501" points="3.955 19.264 12.853 23.039 12.853 23.131 3.955 19.355" clip-path="url(#SVGID_98_)"/></g></g><g><g><defs><path id="SVGID_99_" d="M5.933,18.743c0-3.452,2.393-6.341,5.607-7.107l0.586-4.086c-4.603,0.55-8.171,4.465-8.171,9.216 c0,4.992,3.944,9.069,8.897,9.272C8.997,25.833,5.933,22.646,5.933,18.743z"/></defs><clipPath id="SVGID_100_"><use overflow="visible" xlink:href="#SVGID_99_"/></clipPath><polygon fill="#FE3601" points="3.955 19.172 12.853 22.947 12.853 23.039 3.955 19.264" clip-path="url(#SVGID_100_)"/></g></g><g><g><defs><path id="SVGID_101_" d="M5.933,18.743c0-3.452,2.393-6.341,5.607-7.107l0.586-4.086c-4.603,0.55-8.171,4.465-8.171,9.216 c0,4.992,3.944,9.069,8.897,9.272C8.997,25.833,5.933,22.646,5.933,18.743z"/></defs><clipPath id="SVGID_102_"><use overflow="visible" xlink:href="#SVGID_101_"/></clipPath><polygon fill="#FE3701" points="3.955 19.078 12.853 22.854 12.853 22.947 3.955 19.172" clip-path="url(#SVGID_102_)"/></g></g><g><g><defs><path id="SVGID_103_" d="M5.933,18.743c0-3.452,2.393-6.341,5.607-7.107l0.586-4.086c-4.603,0.55-8.171,4.465-8.171,9.216 c0,4.992,3.944,9.069,8.897,9.272C8.997,25.833,5.933,22.646,5.933,18.743z"/></defs><clipPath id="SVGID_104_"><use overflow="visible" xlink:href="#SVGID_103_"/></clipPath><polygon fill="#FE3801" points="3.955 18.986 12.853 22.764 12.853 22.854 3.955 19.078" clip-path="url(#SVGID_104_)"/></g></g><g><g><defs><path id="SVGID_105_" d="M5.933,18.743c0-3.452,2.393-6.341,5.607-7.107l0.586-4.086c-4.603,0.55-8.171,4.465-8.171,9.216 c0,4.992,3.944,9.069,8.897,9.272C8.997,25.833,5.933,22.646,5.933,18.743z"/></defs><clipPath id="SVGID_106_"><use overflow="visible" xlink:href="#SVGID_105_"/></clipPath><polygon fill="#FE3901" points="3.955 18.895 12.853 22.671 12.853 22.764 3.955 18.986" clip-path="url(#SVGID_106_)"/></g></g><g><g><defs><path id="SVGID_107_" d="M5.933,18.743c0-3.452,2.393-6.341,5.607-7.107l0.586-4.086c-4.603,0.55-8.171,4.465-8.171,9.216 c0,4.992,3.944,9.069,8.897,9.272C8.997,25.833,5.933,22.646,5.933,18.743z"/></defs><clipPath id="SVGID_108_"><use overflow="visible" xlink:href="#SVGID_107_"/></clipPath><polygon fill="#FE3A01" points="3.955 18.802 12.853 22.577 12.853 22.671 3.955 18.895" clip-path="url(#SVGID_108_)"/></g></g><g><g><defs><path id="SVGID_109_" d="M5.933,18.743c0-3.452,2.393-6.341,5.607-7.107l0.586-4.086c-4.603,0.55-8.171,4.465-8.171,9.216 c0,4.992,3.944,9.069,8.897,9.272C8.997,25.833,5.933,22.646,5.933,18.743z"/></defs><clipPath id="SVGID_110_"><use overflow="visible" xlink:href="#SVGID_109_"/></clipPath><polygon fill="#FE3B01" points="3.955 18.71 12.853 22.486 12.853 22.577 3.955 18.802" clip-path="url(#SVGID_110_)"/></g></g><g><g><defs><path id="SVGID_111_" d="M5.933,18.743c0-3.452,2.393-6.341,5.607-7.107l0.586-4.086c-4.603,0.55-8.171,4.465-8.171,9.216 c0,4.992,3.944,9.069,8.897,9.272C8.997,25.833,5.933,22.646,5.933,18.743z"/></defs><clipPath id="SVGID_112_"><use overflow="visible" xlink:href="#SVGID_111_"/></clipPath><polygon fill="#FE3C01" points="3.955 18.616 12.853 22.395 12.853 22.486 3.955 18.71" clip-path="url(#SVGID_112_)"/></g></g><g><g><defs><path id="SVGID_113_" d="M5.933,18.743c0-3.452,2.393-6.341,5.607-7.107l0.586-4.086c-4.603,0.55-8.171,4.465-8.171,9.216 c0,4.992,3.944,9.069,8.897,9.272C8.997,25.833,5.933,22.646,5.933,18.743z"/></defs><clipPath id="SVGID_114_"><use overflow="visible" xlink:href="#SVGID_113_"/></clipPath><polygon fill="#FE3D01" points="3.955 18.525 12.853 22.301 12.853 22.395 3.955 18.616" clip-path="url(#SVGID_114_)"/></g></g><g><g><defs><path id="SVGID_115_" d="M5.933,18.743c0-3.452,2.393-6.341,5.607-7.107l0.586-4.086c-4.603,0.55-8.171,4.465-8.171,9.216 c0,4.992,3.944,9.069,8.897,9.272C8.997,25.833,5.933,22.646,5.933,18.743z"/></defs><clipPath id="SVGID_116_"><use overflow="visible" xlink:href="#SVGID_115_"/></clipPath><polygon fill="#FE3E01" points="3.955 18.434 12.853 22.209 12.853 22.301 3.955 18.525" clip-path="url(#SVGID_116_)"/></g></g><g><g><defs><path id="SVGID_117_" d="M5.933,18.743c0-3.452,2.393-6.341,5.607-7.107l0.586-4.086c-4.603,0.55-8.171,4.465-8.171,9.216 c0,4.992,3.944,9.069,8.897,9.272C8.997,25.833,5.933,22.646,5.933,18.743z"/></defs><clipPath id="SVGID_118_"><use overflow="visible" xlink:href="#SVGID_117_"/></clipPath><polygon fill="#FE3F01" points="3.955 18.342 12.853 22.118 12.853 22.209 3.955 18.434" clip-path="url(#SVGID_118_)"/></g></g><g><g><defs><path id="SVGID_119_" d="M5.933,18.743c0-3.452,2.393-6.341,5.607-7.107l0.586-4.086c-4.603,0.55-8.171,4.465-8.171,9.216 c0,4.992,3.944,9.069,8.897,9.272C8.997,25.833,5.933,22.646,5.933,18.743z"/></defs><clipPath id="SVGID_120_"><use overflow="visible" xlink:href="#SVGID_119_"/></clipPath><polygon fill="#FE4001" points="3.955 18.248 12.853 22.023 12.853 22.118 3.955 18.342" clip-path="url(#SVGID_120_)"/></g></g><g><g><defs><path id="SVGID_121_" d="M5.933,18.743c0-3.452,2.393-6.341,5.607-7.107l0.586-4.086c-4.603,0.55-8.171,4.465-8.171,9.216 c0,4.992,3.944,9.069,8.897,9.272C8.997,25.833,5.933,22.646,5.933,18.743z"/></defs><clipPath id="SVGID_122_"><use overflow="visible" xlink:href="#SVGID_121_"/></clipPath><polygon fill="#FE4101" points="3.955 18.157 12.853 21.934 12.853 22.023 3.955 18.248" clip-path="url(#SVGID_122_)"/></g></g><g><g><defs><path id="SVGID_123_" d="M5.933,18.743c0-3.452,2.393-6.341,5.607-7.107l0.586-4.086c-4.603,0.55-8.171,4.465-8.171,9.216 c0,4.992,3.944,9.069,8.897,9.272C8.997,25.833,5.933,22.646,5.933,18.743z"/></defs><clipPath id="SVGID_124_"><use overflow="visible" xlink:href="#SVGID_123_"/></clipPath><polygon fill="#FE4201" points="3.955 18.062 12.853 21.84 12.853 21.934 3.955 18.157" clip-path="url(#SVGID_124_)"/></g></g><g><g><defs><path id="SVGID_125_" d="M5.933,18.743c0-3.452,2.393-6.341,5.607-7.107l0.586-4.086c-4.603,0.55-8.171,4.465-8.171,9.216 c0,4.992,3.944,9.069,8.897,9.272C8.997,25.833,5.933,22.646,5.933,18.743z"/></defs><clipPath id="SVGID_126_"><use overflow="visible" xlink:href="#SVGID_125_"/></clipPath><polygon fill="#FE4301" points="3.955 17.973 12.853 21.749 12.853 21.84 3.955 18.062" clip-path="url(#SVGID_126_)"/></g></g><g><g><defs><path id="SVGID_127_" d="M5.933,18.743c0-3.452,2.393-6.341,5.607-7.107l0.586-4.086c-4.603,0.55-8.171,4.465-8.171,9.216 c0,4.992,3.944,9.069,8.897,9.272C8.997,25.833,5.933,22.646,5.933,18.743z"/></defs><clipPath id="SVGID_128_"><use overflow="visible" xlink:href="#SVGID_127_"/></clipPath><polygon fill="#FE4401" points="3.955 17.881 12.853 21.656 12.853 21.749 3.955 17.973" clip-path="url(#SVGID_128_)"/></g></g><g><g><defs><path id="SVGID_129_" d="M5.933,18.743c0-3.452,2.393-6.341,5.607-7.107l0.586-4.086c-4.603,0.55-8.171,4.465-8.171,9.216 c0,4.992,3.944,9.069,8.897,9.272C8.997,25.833,5.933,22.646,5.933,18.743z"/></defs><clipPath id="SVGID_130_"><use overflow="visible" xlink:href="#SVGID_129_"/></clipPath><polygon fill="#FE4501" points="3.955 17.789 12.853 21.564 12.853 21.656 3.955 17.881" clip-path="url(#SVGID_130_)"/></g></g><g><g><defs><path id="SVGID_131_" d="M5.933,18.743c0-3.452,2.393-6.341,5.607-7.107l0.586-4.086c-4.603,0.55-8.171,4.465-8.171,9.216 c0,4.992,3.944,9.069,8.897,9.272C8.997,25.833,5.933,22.646,5.933,18.743z"/></defs><clipPath id="SVGID_132_"><use overflow="visible" xlink:href="#SVGID_131_"/></clipPath><polygon fill="#FE4601" points="3.955 17.695 12.853 21.475 12.853 21.564 3.955 17.789" clip-path="url(#SVGID_132_)"/></g></g><g><g><defs><path id="SVGID_133_" d="M5.933,18.743c0-3.452,2.393-6.341,5.607-7.107l0.586-4.086c-4.603,0.55-8.171,4.465-8.171,9.216 c0,4.992,3.944,9.069,8.897,9.272C8.997,25.833,5.933,22.646,5.933,18.743z"/></defs><clipPath id="SVGID_134_"><use overflow="visible" xlink:href="#SVGID_133_"/></clipPath><polygon fill="#FE4701" points="3.955 17.604 12.853 21.38 12.853 21.475 3.955 17.695" clip-path="url(#SVGID_134_)"/></g></g><g><g><defs><path id="SVGID_135_" d="M5.933,18.743c0-3.452,2.393-6.341,5.607-7.107l0.586-4.086c-4.603,0.55-8.171,4.465-8.171,9.216 c0,4.992,3.944,9.069,8.897,9.272C8.997,25.833,5.933,22.646,5.933,18.743z"/></defs><clipPath id="SVGID_136_"><use overflow="visible" xlink:href="#SVGID_135_"/></clipPath><polygon fill="#FE4801" points="3.955 17.512 12.853 21.287 12.853 21.38 3.955 17.604" clip-path="url(#SVGID_136_)"/></g></g><g><g><defs><path id="SVGID_137_" d="M5.933,18.743c0-3.452,2.393-6.341,5.607-7.107l0.586-4.086c-4.603,0.55-8.171,4.465-8.171,9.216 c0,4.992,3.944,9.069,8.897,9.272C8.997,25.833,5.933,22.646,5.933,18.743z"/></defs><clipPath id="SVGID_138_"><use overflow="visible" xlink:href="#SVGID_137_"/></clipPath><polygon fill="#FE4902" points="3.955 17.419 12.853 21.195 12.853 21.287 3.955 17.512" clip-path="url(#SVGID_138_)"/></g></g><g><g><defs><path id="SVGID_139_" d="M5.933,18.743c0-3.452,2.393-6.341,5.607-7.107l0.586-4.086c-4.603,0.55-8.171,4.465-8.171,9.216 c0,4.992,3.944,9.069,8.897,9.272C8.997,25.833,5.933,22.646,5.933,18.743z"/></defs><clipPath id="SVGID_140_"><use overflow="visible" xlink:href="#SVGID_139_"/></clipPath><polygon fill="#FE4A02" points="3.955 17.327 12.853 21.104 12.853 21.195 3.955 17.419" clip-path="url(#SVGID_140_)"/></g></g><g><g><defs><path id="SVGID_141_" d="M5.933,18.743c0-3.452,2.393-6.341,5.607-7.107l0.586-4.086c-4.603,0.55-8.171,4.465-8.171,9.216 c0,4.992,3.944,9.069,8.897,9.272C8.997,25.833,5.933,22.646,5.933,18.743z"/></defs><clipPath id="SVGID_142_"><use overflow="visible" xlink:href="#SVGID_141_"/></clipPath><polygon fill="#FE4B02" points="3.955 17.232 12.853 21.012 12.853 21.104 3.955 17.327" clip-path="url(#SVGID_142_)"/></g></g><g><g><defs><path id="SVGID_143_" d="M5.933,18.743c0-3.452,2.393-6.341,5.607-7.107l0.586-4.086c-4.603,0.55-8.171,4.465-8.171,9.216 c0,4.992,3.944,9.069,8.897,9.272C8.997,25.833,5.933,22.646,5.933,18.743z"/></defs><clipPath id="SVGID_144_"><use overflow="visible" xlink:href="#SVGID_143_"/></clipPath><polygon fill="#FE4C02" points="3.955 17.143 12.853 20.92 12.853 21.012 3.955 17.232" clip-path="url(#SVGID_144_)"/></g></g><g><g><defs><path id="SVGID_145_" d="M5.933,18.743c0-3.452,2.393-6.341,5.607-7.107l0.586-4.086c-4.603,0.55-8.171,4.465-8.171,9.216 c0,4.992,3.944,9.069,8.897,9.272C8.997,25.833,5.933,22.646,5.933,18.743z"/></defs><clipPath id="SVGID_146_"><use overflow="visible" xlink:href="#SVGID_145_"/></clipPath><polygon fill="#FE4D02" points="3.955 17.05 12.853 20.826 12.853 20.92 3.955 17.143" clip-path="url(#SVGID_146_)"/></g></g><g><g><defs><path id="SVGID_147_" d="M5.933,18.743c0-3.452,2.393-6.341,5.607-7.107l0.586-4.086c-4.603,0.55-8.171,4.465-8.171,9.216 c0,4.992,3.944,9.069,8.897,9.272C8.997,25.833,5.933,22.646,5.933,18.743z"/></defs><clipPath id="SVGID_148_"><use overflow="visible" xlink:href="#SVGID_147_"/></clipPath><polygon fill="#FE4E02" points="3.955 16.958 12.853 20.734 12.853 20.826 3.955 17.05" clip-path="url(#SVGID_148_)"/></g></g><g><g><defs><path id="SVGID_149_" d="M5.933,18.743c0-3.452,2.393-6.341,5.607-7.107l0.586-4.086c-4.603,0.55-8.171,4.465-8.171,9.216 c0,4.992,3.944,9.069,8.897,9.272C8.997,25.833,5.933,22.646,5.933,18.743z"/></defs><clipPath id="SVGID_150_"><use overflow="visible" xlink:href="#SVGID_149_"/></clipPath><polygon fill="#FE4F02" points="3.955 16.865 12.853 20.643 12.853 20.734 3.955 16.958" clip-path="url(#SVGID_150_)"/></g></g><g><g><defs><path id="SVGID_151_" d="M5.933,18.743c0-3.452,2.393-6.341,5.607-7.107l0.586-4.086c-4.603,0.55-8.171,4.465-8.171,9.216 c0,4.992,3.944,9.069,8.897,9.272C8.997,25.833,5.933,22.646,5.933,18.743z"/></defs><clipPath id="SVGID_152_"><use overflow="visible" xlink:href="#SVGID_151_"/></clipPath><polygon fill="#FE5002" points="3.955 16.773 12.853 20.55 12.853 20.643 3.955 16.865" clip-path="url(#SVGID_152_)"/></g></g><g><g><defs><path id="SVGID_153_" d="M5.933,18.743c0-3.452,2.393-6.341,5.607-7.107l0.586-4.086c-4.603,0.55-8.171,4.465-8.171,9.216 c0,4.992,3.944,9.069,8.897,9.272C8.997,25.833,5.933,22.646,5.933,18.743z"/></defs><clipPath id="SVGID_154_"><use overflow="visible" xlink:href="#SVGID_153_"/></clipPath><polygon fill="#FE5102" points="3.955 16.682 12.853 20.459 12.853 20.55 3.955 16.773" clip-path="url(#SVGID_154_)"/></g></g><g><g><defs><path id="SVGID_155_" d="M5.933,18.743c0-3.452,2.393-6.341,5.607-7.107l0.586-4.086c-4.603,0.55-8.171,4.465-8.171,9.216 c0,4.992,3.944,9.069,8.897,9.272C8.997,25.833,5.933,22.646,5.933,18.743z"/></defs><clipPath id="SVGID_156_"><use overflow="visible" xlink:href="#SVGID_155_"/></clipPath><polygon fill="#FE5202" points="3.955 16.589 12.853 20.365 12.853 20.459 3.955 16.682" clip-path="url(#SVGID_156_)"/></g></g><g><g><defs><path id="SVGID_157_" d="M5.933,18.743c0-3.452,2.393-6.341,5.607-7.107l0.586-4.086c-4.603,0.55-8.171,4.465-8.171,9.216 c0,4.992,3.944,9.069,8.897,9.272C8.997,25.833,5.933,22.646,5.933,18.743z"/></defs><clipPath id="SVGID_158_"><use overflow="visible" xlink:href="#SVGID_157_"/></clipPath><polygon fill="#FE5302" points="3.955 16.498 12.853 20.273 12.853 20.365 3.955 16.589" clip-path="url(#SVGID_158_)"/></g></g><g><g><defs><path id="SVGID_159_" d="M5.933,18.743c0-3.452,2.393-6.341,5.607-7.107l0.586-4.086c-4.603,0.55-8.171,4.465-8.171,9.216 c0,4.992,3.944,9.069,8.897,9.272C8.997,25.833,5.933,22.646,5.933,18.743z"/></defs><clipPath id="SVGID_160_"><use overflow="visible" xlink:href="#SVGID_159_"/></clipPath><polygon fill="#FE5402" points="3.955 16.404 12.853 20.182 12.853 20.273 3.955 16.498" clip-path="url(#SVGID_160_)"/></g></g><g><g><defs><path id="SVGID_161_" d="M5.933,18.743c0-3.452,2.393-6.341,5.607-7.107l0.586-4.086c-4.603,0.55-8.171,4.465-8.171,9.216 c0,4.992,3.944,9.069,8.897,9.272C8.997,25.833,5.933,22.646,5.933,18.743z"/></defs><clipPath id="SVGID_162_"><use overflow="visible" xlink:href="#SVGID_161_"/></clipPath><polygon fill="#FE5502" points="3.955 16.312 12.853 20.088 12.853 20.182 3.955 16.404" clip-path="url(#SVGID_162_)"/></g></g><g><g><defs><path id="SVGID_163_" d="M5.933,18.743c0-3.452,2.393-6.341,5.607-7.107l0.586-4.086c-4.603,0.55-8.171,4.465-8.171,9.216 c0,4.992,3.944,9.069,8.897,9.272C8.997,25.833,5.933,22.646,5.933,18.743z"/></defs><clipPath id="SVGID_164_"><use overflow="visible" xlink:href="#SVGID_163_"/></clipPath><polygon fill="#FE5602" points="3.955 16.221 12.853 19.997 12.853 20.088 3.955 16.312" clip-path="url(#SVGID_164_)"/></g></g><g><g><defs><path id="SVGID_165_" d="M5.933,18.743c0-3.452,2.393-6.341,5.607-7.107l0.586-4.086c-4.603,0.55-8.171,4.465-8.171,9.216 c0,4.992,3.944,9.069,8.897,9.272C8.997,25.833,5.933,22.646,5.933,18.743z"/></defs><clipPath id="SVGID_166_"><use overflow="visible" xlink:href="#SVGID_165_"/></clipPath><polygon fill="#FE5702" points="3.955 16.127 12.853 19.904 12.853 19.997 3.955 16.221" clip-path="url(#SVGID_166_)"/></g></g><g><g><defs><path id="SVGID_167_" d="M5.933,18.743c0-3.452,2.393-6.341,5.607-7.107l0.586-4.086c-4.603,0.55-8.171,4.465-8.171,9.216 c0,4.992,3.944,9.069,8.897,9.272C8.997,25.833,5.933,22.646,5.933,18.743z"/></defs><clipPath id="SVGID_168_"><use overflow="visible" xlink:href="#SVGID_167_"/></clipPath><polygon fill="#FE5802" points="3.955 16.036 12.853 19.812 12.853 19.904 3.955 16.127" clip-path="url(#SVGID_168_)"/></g></g><g><g><defs><path id="SVGID_169_" d="M5.933,18.743c0-3.452,2.393-6.341,5.607-7.107l0.586-4.086c-4.603,0.55-8.171,4.465-8.171,9.216 c0,4.992,3.944,9.069,8.897,9.272C8.997,25.833,5.933,22.646,5.933,18.743z"/></defs><clipPath id="SVGID_170_"><use overflow="visible" xlink:href="#SVGID_169_"/></clipPath><polygon fill="#FE5902" points="3.955 15.943 12.853 19.721 12.853 19.812 3.955 16.036" clip-path="url(#SVGID_170_)"/></g></g><g><g><defs><path id="SVGID_171_" d="M5.933,18.743c0-3.452,2.393-6.341,5.607-7.107l0.586-4.086c-4.603,0.55-8.171,4.465-8.171,9.216 c0,4.992,3.944,9.069,8.897,9.272C8.997,25.833,5.933,22.646,5.933,18.743z"/></defs><clipPath id="SVGID_172_"><use overflow="visible" xlink:href="#SVGID_171_"/></clipPath><polygon fill="#FE5A02" points="3.955 15.852 12.853 19.629 12.853 19.721 3.955 15.943" clip-path="url(#SVGID_172_)"/></g></g><g><g><defs><path id="SVGID_173_" d="M5.933,18.743c0-3.452,2.393-6.341,5.607-7.107l0.586-4.086c-4.603,0.55-8.171,4.465-8.171,9.216 c0,4.992,3.944,9.069,8.897,9.272C8.997,25.833,5.933,22.646,5.933,18.743z"/></defs><clipPath id="SVGID_174_"><use overflow="visible" xlink:href="#SVGID_173_"/></clipPath><polygon fill="#FE5B02" points="3.955 15.76 12.853 19.535 12.853 19.629 3.955 15.852" clip-path="url(#SVGID_174_)"/></g></g><g><g><defs><path id="SVGID_175_" d="M5.933,18.743c0-3.452,2.393-6.341,5.607-7.107l0.586-4.086c-4.603,0.55-8.171,4.465-8.171,9.216 c0,4.992,3.944,9.069,8.897,9.272C8.997,25.833,5.933,22.646,5.933,18.743z"/></defs><clipPath id="SVGID_176_"><use overflow="visible" xlink:href="#SVGID_175_"/></clipPath><polygon fill="#FE5C02" points="3.955 15.669 12.853 19.443 12.853 19.535 3.955 15.76" clip-path="url(#SVGID_176_)"/></g></g><g><g><defs><path id="SVGID_177_" d="M5.933,18.743c0-3.452,2.393-6.341,5.607-7.107l0.586-4.086c-4.603,0.55-8.171,4.465-8.171,9.216 c0,4.992,3.944,9.069,8.897,9.272C8.997,25.833,5.933,22.646,5.933,18.743z"/></defs><clipPath id="SVGID_178_"><use overflow="visible" xlink:href="#SVGID_177_"/></clipPath><polygon fill="#FE5D02" points="3.955 15.575 12.853 19.352 12.853 19.443 3.955 15.669" clip-path="url(#SVGID_178_)"/></g></g><g><g><defs><path id="SVGID_179_" d="M5.933,18.743c0-3.452,2.393-6.341,5.607-7.107l0.586-4.086c-4.603,0.55-8.171,4.465-8.171,9.216 c0,4.992,3.944,9.069,8.897,9.272C8.997,25.833,5.933,22.646,5.933,18.743z"/></defs><clipPath id="SVGID_180_"><use overflow="visible" xlink:href="#SVGID_179_"/></clipPath><polygon fill="#FE5E02" points="3.955 15.482 12.853 19.259 12.853 19.352 3.955 15.575" clip-path="url(#SVGID_180_)"/></g></g><g><g><defs><path id="SVGID_181_" d="M5.933,18.743c0-3.452,2.393-6.341,5.607-7.107l0.586-4.086c-4.603,0.55-8.171,4.465-8.171,9.216 c0,4.992,3.944,9.069,8.897,9.272C8.997,25.833,5.933,22.646,5.933,18.743z"/></defs><clipPath id="SVGID_182_"><use overflow="visible" xlink:href="#SVGID_181_"/></clipPath><polygon fill="#FF5F02" points="3.955 15.392 12.853 19.167 12.853 19.259 3.955 15.482" clip-path="url(#SVGID_182_)"/></g></g><g><g><defs><path id="SVGID_183_" d="M5.933,18.743c0-3.452,2.393-6.341,5.607-7.107l0.586-4.086c-4.603,0.55-8.171,4.465-8.171,9.216 c0,4.992,3.944,9.069,8.897,9.272C8.997,25.833,5.933,22.646,5.933,18.743z"/></defs><clipPath id="SVGID_184_"><use overflow="visible" xlink:href="#SVGID_183_"/></clipPath><polygon fill="#FF6102" points="3.955 15.3 12.853 19.076 12.853 19.167 3.955 15.392" clip-path="url(#SVGID_184_)"/></g></g><g><g><defs><path id="SVGID_185_" d="M5.933,18.743c0-3.452,2.393-6.341,5.607-7.107l0.586-4.086c-4.603,0.55-8.171,4.465-8.171,9.216 c0,4.992,3.944,9.069,8.897,9.272C8.997,25.833,5.933,22.646,5.933,18.743z"/></defs><clipPath id="SVGID_186_"><use overflow="visible" xlink:href="#SVGID_185_"/></clipPath><polygon fill="#FF6202" points="3.955 15.206 12.853 18.982 12.853 19.076 3.955 15.3" clip-path="url(#SVGID_186_)"/></g></g><g><g><defs><path id="SVGID_187_" d="M5.933,18.743c0-3.452,2.393-6.341,5.607-7.107l0.586-4.086c-4.603,0.55-8.171,4.465-8.171,9.216 c0,4.992,3.944,9.069,8.897,9.272C8.997,25.833,5.933,22.646,5.933,18.743z"/></defs><clipPath id="SVGID_188_"><use overflow="visible" xlink:href="#SVGID_187_"/></clipPath><polygon fill="#FF6302" points="3.955 15.115 12.853 18.891 12.853 18.982 3.955 15.206" clip-path="url(#SVGID_188_)"/></g></g><g><g><defs><path id="SVGID_189_" d="M5.933,18.743c0-3.452,2.393-6.341,5.607-7.107l0.586-4.086c-4.603,0.55-8.171,4.465-8.171,9.216 c0,4.992,3.944,9.069,8.897,9.272C8.997,25.833,5.933,22.646,5.933,18.743z"/></defs><clipPath id="SVGID_190_"><use overflow="visible" xlink:href="#SVGID_189_"/></clipPath><polygon fill="#FF6402" points="3.955 15.021 12.853 18.798 12.853 18.891 3.955 15.115" clip-path="url(#SVGID_190_)"/></g></g><g><g><defs><path id="SVGID_191_" d="M5.933,18.743c0-3.452,2.393-6.341,5.607-7.107l0.586-4.086c-4.603,0.55-8.171,4.465-8.171,9.216 c0,4.992,3.944,9.069,8.897,9.272C8.997,25.833,5.933,22.646,5.933,18.743z"/></defs><clipPath id="SVGID_192_"><use overflow="visible" xlink:href="#SVGID_191_"/></clipPath><polygon fill="#FF6502" points="3.955 14.929 12.853 18.705 12.853 18.798 3.955 15.021" clip-path="url(#SVGID_192_)"/></g></g><g><g><defs><path id="SVGID_193_" d="M5.933,18.743c0-3.452,2.393-6.341,5.607-7.107l0.586-4.086c-4.603,0.55-8.171,4.465-8.171,9.216 c0,4.992,3.944,9.069,8.897,9.272C8.997,25.833,5.933,22.646,5.933,18.743z"/></defs><clipPath id="SVGID_194_"><use overflow="visible" xlink:href="#SVGID_193_"/></clipPath><polygon fill="#FF6602" points="3.955 14.837 12.853 18.614 12.853 18.705 3.955 14.929" clip-path="url(#SVGID_194_)"/></g></g><g><g><defs><path id="SVGID_195_" d="M5.933,18.743c0-3.452,2.393-6.341,5.607-7.107l0.586-4.086c-4.603,0.55-8.171,4.465-8.171,9.216 c0,4.992,3.944,9.069,8.897,9.272C8.997,25.833,5.933,22.646,5.933,18.743z"/></defs><clipPath id="SVGID_196_"><use overflow="visible" xlink:href="#SVGID_195_"/></clipPath><polygon fill="#FF6702" points="3.955 14.746 12.853 18.521 12.853 18.614 3.955 14.837" clip-path="url(#SVGID_196_)"/></g></g><g><g><defs><path id="SVGID_197_" d="M5.933,18.743c0-3.452,2.393-6.341,5.607-7.107l0.586-4.086c-4.603,0.55-8.171,4.465-8.171,9.216 c0,4.992,3.944,9.069,8.897,9.272C8.997,25.833,5.933,22.646,5.933,18.743z"/></defs><clipPath id="SVGID_198_"><use overflow="visible" xlink:href="#SVGID_197_"/></clipPath><polygon fill="#FF6802" points="3.955 14.653 12.853 18.43 12.853 18.521 3.955 14.746" clip-path="url(#SVGID_198_)"/></g></g><g><g><defs><path id="SVGID_199_" d="M5.933,18.743c0-3.452,2.393-6.341,5.607-7.107l0.586-4.086c-4.603,0.55-8.171,4.465-8.171,9.216 c0,4.992,3.944,9.069,8.897,9.272C8.997,25.833,5.933,22.646,5.933,18.743z"/></defs><clipPath id="SVGID_200_"><use overflow="visible" xlink:href="#SVGID_199_"/></clipPath><polygon fill="#FF6902" points="3.955 14.561 12.853 18.338 12.853 18.43 3.955 14.653" clip-path="url(#SVGID_200_)"/></g></g><g><g><defs><path id="SVGID_201_" d="M5.933,18.743c0-3.452,2.393-6.341,5.607-7.107l0.586-4.086c-4.603,0.55-8.171,4.465-8.171,9.216 c0,4.992,3.944,9.069,8.897,9.272C8.997,25.833,5.933,22.646,5.933,18.743z"/></defs><clipPath id="SVGID_202_"><use overflow="visible" xlink:href="#SVGID_201_"/></clipPath><polygon fill="#FF6A02" points="3.955 14.47 12.853 18.245 12.853 18.338 3.955 14.561" clip-path="url(#SVGID_202_)"/></g></g><g><g><defs><path id="SVGID_203_" d="M5.933,18.743c0-3.452,2.393-6.341,5.607-7.107l0.586-4.086c-4.603,0.55-8.171,4.465-8.171,9.216 c0,4.992,3.944,9.069,8.897,9.272C8.997,25.833,5.933,22.646,5.933,18.743z"/></defs><clipPath id="SVGID_204_"><use overflow="visible" xlink:href="#SVGID_203_"/></clipPath><polygon fill="#FF6B02" points="3.955 14.376 12.853 18.152 12.853 18.245 3.955 14.47" clip-path="url(#SVGID_204_)"/></g></g><g><g><defs><path id="SVGID_205_" d="M5.933,18.743c0-3.452,2.393-6.341,5.607-7.107l0.586-4.086c-4.603,0.55-8.171,4.465-8.171,9.216 c0,4.992,3.944,9.069,8.897,9.272C8.997,25.833,5.933,22.646,5.933,18.743z"/></defs><clipPath id="SVGID_206_"><use overflow="visible" xlink:href="#SVGID_205_"/></clipPath><polygon fill="#FF6C02" points="3.955 14.283 12.853 18.061 12.853 18.152 3.955 14.376" clip-path="url(#SVGID_206_)"/></g></g><g><g><defs><path id="SVGID_207_" d="M5.933,18.743c0-3.452,2.393-6.341,5.607-7.107l0.586-4.086c-4.603,0.55-8.171,4.465-8.171,9.216 c0,4.992,3.944,9.069,8.897,9.272C8.997,25.833,5.933,22.646,5.933,18.743z"/></defs><clipPath id="SVGID_208_"><use overflow="visible" xlink:href="#SVGID_207_"/></clipPath><polygon fill="#FF6D02" points="3.955 14.192 12.853 17.971 12.853 18.061 3.955 14.283" clip-path="url(#SVGID_208_)"/></g></g><g><g><defs><path id="SVGID_209_" d="M5.933,18.743c0-3.452,2.393-6.341,5.607-7.107l0.586-4.086c-4.603,0.55-8.171,4.465-8.171,9.216 c0,4.992,3.944,9.069,8.897,9.272C8.997,25.833,5.933,22.646,5.933,18.743z"/></defs><clipPath id="SVGID_210_"><use overflow="visible" xlink:href="#SVGID_209_"/></clipPath><polygon fill="#FF6E02" points="3.955 14.1 12.853 17.876 12.853 17.971 3.955 14.192" clip-path="url(#SVGID_210_)"/></g></g><g><g><defs><path id="SVGID_211_" d="M5.933,18.743c0-3.452,2.393-6.341,5.607-7.107l0.586-4.086c-4.603,0.55-8.171,4.465-8.171,9.216 c0,4.992,3.944,9.069,8.897,9.272C8.997,25.833,5.933,22.646,5.933,18.743z"/></defs><clipPath id="SVGID_212_"><use overflow="visible" xlink:href="#SVGID_211_"/></clipPath><polygon fill="#FF6F02" points="3.955 14.008 12.853 17.784 12.853 17.876 3.955 14.1" clip-path="url(#SVGID_212_)"/></g></g><g><g><defs><path id="SVGID_213_" d="M5.933,18.743c0-3.452,2.393-6.341,5.607-7.107l0.586-4.086c-4.603,0.55-8.171,4.465-8.171,9.216 c0,4.992,3.944,9.069,8.897,9.272C8.997,25.833,5.933,22.646,5.933,18.743z"/></defs><clipPath id="SVGID_214_"><use overflow="visible" xlink:href="#SVGID_213_"/></clipPath><polygon fill="#FF7002" points="3.955 13.917 12.853 17.689 12.853 17.784 3.955 14.008" clip-path="url(#SVGID_214_)"/></g></g><g><g><defs><path id="SVGID_215_" d="M5.933,18.743c0-3.452,2.393-6.341,5.607-7.107l0.586-4.086c-4.603,0.55-8.171,4.465-8.171,9.216 c0,4.992,3.944,9.069,8.897,9.272C8.997,25.833,5.933,22.646,5.933,18.743z"/></defs><clipPath id="SVGID_216_"><use overflow="visible" xlink:href="#SVGID_215_"/></clipPath><polygon fill="#FF7102" points="3.955 13.824 12.853 17.6 12.853 17.689 3.955 13.917" clip-path="url(#SVGID_216_)"/></g></g><g><g><defs><path id="SVGID_217_" d="M5.933,18.743c0-3.452,2.393-6.341,5.607-7.107l0.586-4.086c-4.603,0.55-8.171,4.465-8.171,9.216 c0,4.992,3.944,9.069,8.897,9.272C8.997,25.833,5.933,22.646,5.933,18.743z"/></defs><clipPath id="SVGID_218_"><use overflow="visible" xlink:href="#SVGID_217_"/></clipPath><polygon fill="#FF7202" points="3.955 13.731 12.853 17.508 12.853 17.6 3.955 13.824" clip-path="url(#SVGID_218_)"/></g></g><g><g><defs><path id="SVGID_219_" d="M5.933,18.743c0-3.452,2.393-6.341,5.607-7.107l0.586-4.086c-4.603,0.55-8.171,4.465-8.171,9.216 c0,4.992,3.944,9.069,8.897,9.272C8.997,25.833,5.933,22.646,5.933,18.743z"/></defs><clipPath id="SVGID_220_"><use overflow="visible" xlink:href="#SVGID_219_"/></clipPath><polygon fill="#FF7302" points="3.955 13.639 12.853 17.416 12.853 17.508 3.955 13.731" clip-path="url(#SVGID_220_)"/></g></g><g><g><defs><path id="SVGID_221_" d="M5.933,18.743c0-3.452,2.393-6.341,5.607-7.107l0.586-4.086c-4.603,0.55-8.171,4.465-8.171,9.216 c0,4.992,3.944,9.069,8.897,9.272C8.997,25.833,5.933,22.646,5.933,18.743z"/></defs><clipPath id="SVGID_222_"><use overflow="visible" xlink:href="#SVGID_221_"/></clipPath><polygon fill="#FF7402" points="3.955 13.547 12.853 17.322 12.853 17.416 3.955 13.639" clip-path="url(#SVGID_222_)"/></g></g><g><g><defs><path id="SVGID_223_" d="M5.933,18.743c0-3.452,2.393-6.341,5.607-7.107l0.586-4.086c-4.603,0.55-8.171,4.465-8.171,9.216 c0,4.992,3.944,9.069,8.897,9.272C8.997,25.833,5.933,22.646,5.933,18.743z"/></defs><clipPath id="SVGID_224_"><use overflow="visible" xlink:href="#SVGID_223_"/></clipPath><polygon fill="#FF7502" points="3.955 13.455 12.853 17.23 12.853 17.322 3.955 13.547" clip-path="url(#SVGID_224_)"/></g></g><g><g><defs><path id="SVGID_225_" d="M5.933,18.743c0-3.452,2.393-6.341,5.607-7.107l0.586-4.086c-4.603,0.55-8.171,4.465-8.171,9.216 c0,4.992,3.944,9.069,8.897,9.272C8.997,25.833,5.933,22.646,5.933,18.743z"/></defs><clipPath id="SVGID_226_"><use overflow="visible" xlink:href="#SVGID_225_"/></clipPath><polygon fill="#FF7602" points="3.955 13.361 12.853 17.141 12.853 17.23 3.955 13.455" clip-path="url(#SVGID_226_)"/></g></g><g><g><defs><path id="SVGID_227_" d="M5.933,18.743c0-3.452,2.393-6.341,5.607-7.107l0.586-4.086c-4.603,0.55-8.171,4.465-8.171,9.216 c0,4.992,3.944,9.069,8.897,9.272C8.997,25.833,5.933,22.646,5.933,18.743z"/></defs><clipPath id="SVGID_228_"><use overflow="visible" xlink:href="#SVGID_227_"/></clipPath><polygon fill="#FF7703" points="3.955 13.271 12.853 17.046 12.853 17.141 3.955 13.361" clip-path="url(#SVGID_228_)"/></g></g><g><g><defs><path id="SVGID_229_" d="M5.933,18.743c0-3.452,2.393-6.341,5.607-7.107l0.586-4.086c-4.603,0.55-8.171,4.465-8.171,9.216 c0,4.992,3.944,9.069,8.897,9.272C8.997,25.833,5.933,22.646,5.933,18.743z"/></defs><clipPath id="SVGID_230_"><use overflow="visible" xlink:href="#SVGID_229_"/></clipPath><polygon fill="#FF7803" points="3.955 13.179 12.853 16.955 12.853 17.046 3.955 13.271" clip-path="url(#SVGID_230_)"/></g></g><g><g><defs><path id="SVGID_231_" d="M5.933,18.743c0-3.452,2.393-6.341,5.607-7.107l0.586-4.086c-4.603,0.55-8.171,4.465-8.171,9.216 c0,4.992,3.944,9.069,8.897,9.272C8.997,25.833,5.933,22.646,5.933,18.743z"/></defs><clipPath id="SVGID_232_"><use overflow="visible" xlink:href="#SVGID_231_"/></clipPath><polygon fill="#FF7903" points="3.955 13.084 12.853 16.861 12.853 16.955 3.955 13.179" clip-path="url(#SVGID_232_)"/></g></g><g><g><defs><path id="SVGID_233_" d="M5.933,18.743c0-3.452,2.393-6.341,5.607-7.107l0.586-4.086c-4.603,0.55-8.171,4.465-8.171,9.216 c0,4.992,3.944,9.069,8.897,9.272C8.997,25.833,5.933,22.646,5.933,18.743z"/></defs><clipPath id="SVGID_234_"><use overflow="visible" xlink:href="#SVGID_233_"/></clipPath><polygon fill="#FF7A03" points="3.955 12.994 12.853 16.77 12.853 16.861 3.955 13.084" clip-path="url(#SVGID_234_)"/></g></g><g><g><defs><path id="SVGID_235_" d="M5.933,18.743c0-3.452,2.393-6.341,5.607-7.107l0.586-4.086c-4.603,0.55-8.171,4.465-8.171,9.216 c0,4.992,3.944,9.069,8.897,9.272C8.997,25.833,5.933,22.646,5.933,18.743z"/></defs><clipPath id="SVGID_236_"><use overflow="visible" xlink:href="#SVGID_235_"/></clipPath><polygon fill="#FF7B03" points="3.955 12.902 12.853 16.678 12.853 16.77 3.955 12.994" clip-path="url(#SVGID_236_)"/></g></g><g><g><defs><path id="SVGID_237_" d="M5.933,18.743c0-3.452,2.393-6.341,5.607-7.107l0.586-4.086c-4.603,0.55-8.171,4.465-8.171,9.216 c0,4.992,3.944,9.069,8.897,9.272C8.997,25.833,5.933,22.646,5.933,18.743z"/></defs><clipPath id="SVGID_238_"><use overflow="visible" xlink:href="#SVGID_237_"/></clipPath><polygon fill="#FF7C03" points="3.955 12.809 12.853 16.584 12.853 16.678 3.955 12.902" clip-path="url(#SVGID_238_)"/></g></g><g><g><defs><path id="SVGID_239_" d="M5.933,18.743c0-3.452,2.393-6.341,5.607-7.107l0.586-4.086c-4.603,0.55-8.171,4.465-8.171,9.216 c0,4.992,3.944,9.069,8.897,9.272C8.997,25.833,5.933,22.646,5.933,18.743z"/></defs><clipPath id="SVGID_240_"><use overflow="visible" xlink:href="#SVGID_239_"/></clipPath><polygon fill="#FF7D03" points="3.955 12.718 12.853 16.493 12.853 16.584 3.955 12.809" clip-path="url(#SVGID_240_)"/></g></g><g><g><defs><path id="SVGID_241_" d="M5.933,18.743c0-3.452,2.393-6.341,5.607-7.107l0.586-4.086c-4.603,0.55-8.171,4.465-8.171,9.216 c0,4.992,3.944,9.069,8.897,9.272C8.997,25.833,5.933,22.646,5.933,18.743z"/></defs><clipPath id="SVGID_242_"><use overflow="visible" xlink:href="#SVGID_241_"/></clipPath><polygon fill="#FF7E03" points="3.955 12.625 12.853 16.4 12.853 16.493 3.955 12.718" clip-path="url(#SVGID_242_)"/></g></g><g><g><defs><path id="SVGID_243_" d="M5.933,18.743c0-3.452,2.393-6.341,5.607-7.107l0.586-4.086c-4.603,0.55-8.171,4.465-8.171,9.216 c0,4.992,3.944,9.069,8.897,9.272C8.997,25.833,5.933,22.646,5.933,18.743z"/></defs><clipPath id="SVGID_244_"><use overflow="visible" xlink:href="#SVGID_243_"/></clipPath><polygon fill="#FF7F03" points="3.955 12.531 12.853 16.309 12.853 16.4 3.955 12.625" clip-path="url(#SVGID_244_)"/></g></g><g><g><defs><path id="SVGID_245_" d="M5.933,18.743c0-3.452,2.393-6.341,5.607-7.107l0.586-4.086c-4.603,0.55-8.171,4.465-8.171,9.216 c0,4.992,3.944,9.069,8.897,9.272C8.997,25.833,5.933,22.646,5.933,18.743z"/></defs><clipPath id="SVGID_246_"><use overflow="visible" xlink:href="#SVGID_245_"/></clipPath><polygon fill="#FF8003" points="3.955 12.44 12.853 16.217 12.853 16.309 3.955 12.531" clip-path="url(#SVGID_246_)"/></g></g><g><g><defs><path id="SVGID_247_" d="M5.933,18.743c0-3.452,2.393-6.341,5.607-7.107l0.586-4.086c-4.603,0.55-8.171,4.465-8.171,9.216 c0,4.992,3.944,9.069,8.897,9.272C8.997,25.833,5.933,22.646,5.933,18.743z"/></defs><clipPath id="SVGID_248_"><use overflow="visible" xlink:href="#SVGID_247_"/></clipPath><polygon fill="#FF8103" points="3.955 12.348 12.853 16.125 12.853 16.217 3.955 12.44" clip-path="url(#SVGID_248_)"/></g></g><g><g><defs><path id="SVGID_249_" d="M5.933,18.743c0-3.452,2.393-6.341,5.607-7.107l0.586-4.086c-4.603,0.55-8.171,4.465-8.171,9.216 c0,4.992,3.944,9.069,8.897,9.272C8.997,25.833,5.933,22.646,5.933,18.743z"/></defs><clipPath id="SVGID_250_"><use overflow="visible" xlink:href="#SVGID_249_"/></clipPath><polygon fill="#FF8203" points="3.955 12.255 12.853 16.031 12.853 16.125 3.955 12.348" clip-path="url(#SVGID_250_)"/></g></g><g><g><defs><path id="SVGID_251_" d="M5.933,18.743c0-3.452,2.393-6.341,5.607-7.107l0.586-4.086c-4.603,0.55-8.171,4.465-8.171,9.216 c0,4.992,3.944,9.069,8.897,9.272C8.997,25.833,5.933,22.646,5.933,18.743z"/></defs><clipPath id="SVGID_252_"><use overflow="visible" xlink:href="#SVGID_251_"/></clipPath><polygon fill="#FF8303" points="3.955 12.165 12.853 15.941 12.853 16.031 3.955 12.255" clip-path="url(#SVGID_252_)"/></g></g><g><g><defs><path id="SVGID_253_" d="M5.933,18.743c0-3.452,2.393-6.341,5.607-7.107l0.586-4.086c-4.603,0.55-8.171,4.465-8.171,9.216 c0,4.992,3.944,9.069,8.897,9.272C8.997,25.833,5.933,22.646,5.933,18.743z"/></defs><clipPath id="SVGID_254_"><use overflow="visible" xlink:href="#SVGID_253_"/></clipPath><polygon fill="#FF8403" points="3.955 12.072 12.853 15.85 12.853 15.941 3.955 12.165" clip-path="url(#SVGID_254_)"/></g></g><g><g><defs><path id="SVGID_255_" d="M5.933,18.743c0-3.452,2.393-6.341,5.607-7.107l0.586-4.086c-4.603,0.55-8.171,4.465-8.171,9.216 c0,4.992,3.944,9.069,8.897,9.272C8.997,25.833,5.933,22.646,5.933,18.743z"/></defs><clipPath id="SVGID_256_"><use overflow="visible" xlink:href="#SVGID_255_"/></clipPath><polygon fill="#FF8503" points="3.955 11.979 12.853 15.755 12.853 15.85 3.955 12.072" clip-path="url(#SVGID_256_)"/></g></g><g><g><defs><path id="SVGID_257_" d="M5.933,18.743c0-3.452,2.393-6.341,5.607-7.107l0.586-4.086c-4.603,0.55-8.171,4.465-8.171,9.216 c0,4.992,3.944,9.069,8.897,9.272C8.997,25.833,5.933,22.646,5.933,18.743z"/></defs><clipPath id="SVGID_258_"><use overflow="visible" xlink:href="#SVGID_257_"/></clipPath><polygon fill="#FF8603" points="3.955 11.888 12.853 15.664 12.853 15.755 3.955 11.979" clip-path="url(#SVGID_258_)"/></g></g><g><g><defs><path id="SVGID_259_" d="M5.933,18.743c0-3.452,2.393-6.341,5.607-7.107l0.586-4.086c-4.603,0.55-8.171,4.465-8.171,9.216 c0,4.992,3.944,9.069,8.897,9.272C8.997,25.833,5.933,22.646,5.933,18.743z"/></defs><clipPath id="SVGID_260_"><use overflow="visible" xlink:href="#SVGID_259_"/></clipPath><polygon fill="#FF8703" points="3.955 11.795 12.853 15.572 12.853 15.664 3.955 11.888" clip-path="url(#SVGID_260_)"/></g></g><g><g><defs><path id="SVGID_261_" d="M5.933,18.743c0-3.452,2.393-6.341,5.607-7.107l0.586-4.086c-4.603,0.55-8.171,4.465-8.171,9.216 c0,4.992,3.944,9.069,8.897,9.272C8.997,25.833,5.933,22.646,5.933,18.743z"/></defs><clipPath id="SVGID_262_"><use overflow="visible" xlink:href="#SVGID_261_"/></clipPath><polygon fill="#FF8803" points="3.955 11.704 12.853 15.479 12.853 15.572 3.955 11.795" clip-path="url(#SVGID_262_)"/></g></g><g><g><defs><path id="SVGID_263_" d="M5.933,18.743c0-3.452,2.393-6.341,5.607-7.107l0.586-4.086c-4.603,0.55-8.171,4.465-8.171,9.216 c0,4.992,3.944,9.069,8.897,9.272C8.997,25.833,5.933,22.646,5.933,18.743z"/></defs><clipPath id="SVGID_264_"><use overflow="visible" xlink:href="#SVGID_263_"/></clipPath><polygon fill="#FF8903" points="3.955 11.611 12.853 15.386 12.853 15.479 3.955 11.704" clip-path="url(#SVGID_264_)"/></g></g><g><g><defs><path id="SVGID_265_" d="M5.933,18.743c0-3.452,2.393-6.341,5.607-7.107l0.586-4.086c-4.603,0.55-8.171,4.465-8.171,9.216 c0,4.992,3.944,9.069,8.897,9.272C8.997,25.833,5.933,22.646,5.933,18.743z"/></defs><clipPath id="SVGID_266_"><use overflow="visible" xlink:href="#SVGID_265_"/></clipPath><polygon fill="#FF8A03" points="3.955 11.519 12.853 15.295 12.853 15.386 3.955 11.611" clip-path="url(#SVGID_266_)"/></g></g><g><g><defs><path id="SVGID_267_" d="M5.933,18.743c0-3.452,2.393-6.341,5.607-7.107l0.586-4.086c-4.603,0.55-8.171,4.465-8.171,9.216 c0,4.992,3.944,9.069,8.897,9.272C8.997,25.833,5.933,22.646,5.933,18.743z"/></defs><clipPath id="SVGID_268_"><use overflow="visible" xlink:href="#SVGID_267_"/></clipPath><polygon fill="#FF8B03" points="3.955 11.426 12.853 15.201 12.853 15.295 3.955 11.519" clip-path="url(#SVGID_268_)"/></g></g><g><g><defs><path id="SVGID_269_" d="M5.933,18.743c0-3.452,2.393-6.341,5.607-7.107l0.586-4.086c-4.603,0.55-8.171,4.465-8.171,9.216 c0,4.992,3.944,9.069,8.897,9.272C8.997,25.833,5.933,22.646,5.933,18.743z"/></defs><clipPath id="SVGID_270_"><use overflow="visible" xlink:href="#SVGID_269_"/></clipPath><polygon fill="#FF8C03" points="3.955 11.334 12.853 15.11 12.853 15.201 3.955 11.426" clip-path="url(#SVGID_270_)"/></g></g><g><g><defs><path id="SVGID_271_" d="M5.933,18.743c0-3.452,2.393-6.341,5.607-7.107l0.586-4.086c-4.603,0.55-8.171,4.465-8.171,9.216 c0,4.992,3.944,9.069,8.897,9.272C8.997,25.833,5.933,22.646,5.933,18.743z"/></defs><clipPath id="SVGID_272_"><use overflow="visible" xlink:href="#SVGID_271_"/></clipPath><polygon fill="#FF8D03" points="3.955 11.243 12.853 15.02 12.853 15.11 3.955 11.334" clip-path="url(#SVGID_272_)"/></g></g><g><g><defs><path id="SVGID_273_" d="M5.933,18.743c0-3.452,2.393-6.341,5.607-7.107l0.586-4.086c-4.603,0.55-8.171,4.465-8.171,9.216 c0,4.992,3.944,9.069,8.897,9.272C8.997,25.833,5.933,22.646,5.933,18.743z"/></defs><clipPath id="SVGID_274_"><use overflow="visible" xlink:href="#SVGID_273_"/></clipPath><polygon fill="#FF8E03" points="3.955 11.149 12.853 14.927 12.853 15.02 3.955 11.243" clip-path="url(#SVGID_274_)"/></g></g><g><g><defs><path id="SVGID_275_" d="M5.933,18.743c0-3.452,2.393-6.341,5.607-7.107l0.586-4.086c-4.603,0.55-8.171,4.465-8.171,9.216 c0,4.992,3.944,9.069,8.897,9.272C8.997,25.833,5.933,22.646,5.933,18.743z"/></defs><clipPath id="SVGID_276_"><use overflow="visible" xlink:href="#SVGID_275_"/></clipPath><polygon fill="#FF8F03" points="3.955 11.058 12.853 14.833 12.853 14.927 3.955 11.149" clip-path="url(#SVGID_276_)"/></g></g><g><g><defs><path id="SVGID_277_" d="M5.933,18.743c0-3.452,2.393-6.341,5.607-7.107l0.586-4.086c-4.603,0.55-8.171,4.465-8.171,9.216 c0,4.992,3.944,9.069,8.897,9.272C8.997,25.833,5.933,22.646,5.933,18.743z"/></defs><clipPath id="SVGID_278_"><use overflow="visible" xlink:href="#SVGID_277_"/></clipPath><polygon fill="#FF9003" points="3.955 10.965 12.853 14.742 12.853 14.833 3.955 11.058" clip-path="url(#SVGID_278_)"/></g></g><g><g><defs><path id="SVGID_279_" d="M5.933,18.743c0-3.452,2.393-6.341,5.607-7.107l0.586-4.086c-4.603,0.55-8.171,4.465-8.171,9.216 c0,4.992,3.944,9.069,8.897,9.272C8.997,25.833,5.933,22.646,5.933,18.743z"/></defs><clipPath id="SVGID_280_"><use overflow="visible" xlink:href="#SVGID_279_"/></clipPath><polygon fill="#FF9103" points="3.955 10.873 12.853 14.649 12.853 14.742 3.955 10.965" clip-path="url(#SVGID_280_)"/></g></g><g><g><defs><path id="SVGID_281_" d="M5.933,18.743c0-3.452,2.393-6.341,5.607-7.107l0.586-4.086c-4.603,0.55-8.171,4.465-8.171,9.216 c0,4.992,3.944,9.069,8.897,9.272C8.997,25.833,5.933,22.646,5.933,18.743z"/></defs><clipPath id="SVGID_282_"><use overflow="visible" xlink:href="#SVGID_281_"/></clipPath><polygon fill="#FF9203" points="3.955 10.781 12.853 14.557 12.853 14.649 3.955 10.873" clip-path="url(#SVGID_282_)"/></g></g><g><g><defs><path id="SVGID_283_" d="M5.933,18.743c0-3.452,2.393-6.341,5.607-7.107l0.586-4.086c-4.603,0.55-8.171,4.465-8.171,9.216 c0,4.992,3.944,9.069,8.897,9.272C8.997,25.833,5.933,22.646,5.933,18.743z"/></defs><clipPath id="SVGID_284_"><use overflow="visible" xlink:href="#SVGID_283_"/></clipPath><polygon fill="#FF9303" points="3.955 10.69 12.853 14.465 12.853 14.557 3.955 10.781" clip-path="url(#SVGID_284_)"/></g></g><g><g><defs><path id="SVGID_285_" d="M5.933,18.743c0-3.452,2.393-6.341,5.607-7.107l0.586-4.086c-4.603,0.55-8.171,4.465-8.171,9.216 c0,4.992,3.944,9.069,8.897,9.272C8.997,25.833,5.933,22.646,5.933,18.743z"/></defs><clipPath id="SVGID_286_"><use overflow="visible" xlink:href="#SVGID_285_"/></clipPath><polygon fill="#FF9403" points="3.955 10.596 12.853 14.374 12.853 14.465 3.955 10.69" clip-path="url(#SVGID_286_)"/></g></g><g><g><defs><path id="SVGID_287_" d="M5.933,18.743c0-3.452,2.393-6.341,5.607-7.107l0.586-4.086c-4.603,0.55-8.171,4.465-8.171,9.216 c0,4.992,3.944,9.069,8.897,9.272C8.997,25.833,5.933,22.646,5.933,18.743z"/></defs><clipPath id="SVGID_288_"><use overflow="visible" xlink:href="#SVGID_287_"/></clipPath><polygon fill="#FF9503" points="3.955 10.572 3.98 10.516 12.853 14.28 12.853 14.374 3.955 10.596" clip-path="url(#SVGID_288_)"/></g></g><g><g><defs><path id="SVGID_289_" d="M5.933,18.743c0-3.452,2.393-6.341,5.607-7.107l0.586-4.086c-4.603,0.55-8.171,4.465-8.171,9.216 c0,4.992,3.944,9.069,8.897,9.272C8.997,25.833,5.933,22.646,5.933,18.743z"/></defs><clipPath id="SVGID_290_"><use overflow="visible" xlink:href="#SVGID_289_"/></clipPath><polygon fill="#FF9603" points="3.98 10.516 4.012 10.436 12.853 14.188 12.853 14.28" clip-path="url(#SVGID_290_)"/></g></g><g><g><defs><path id="SVGID_291_" d="M5.933,18.743c0-3.452,2.393-6.341,5.607-7.107l0.586-4.086c-4.603,0.55-8.171,4.465-8.171,9.216 c0,4.992,3.944,9.069,8.897,9.272C8.997,25.833,5.933,22.646,5.933,18.743z"/></defs><clipPath id="SVGID_292_"><use overflow="visible" xlink:href="#SVGID_291_"/></clipPath><polygon fill="#FF9703" points="4.012 10.436 4.045 10.359 12.853 14.097 12.853 14.188" clip-path="url(#SVGID_292_)"/></g></g><g><g><defs><path id="SVGID_293_" d="M5.933,18.743c0-3.452,2.393-6.341,5.607-7.107l0.586-4.086c-4.603,0.55-8.171,4.465-8.171,9.216 c0,4.992,3.944,9.069,8.897,9.272C8.997,25.833,5.933,22.646,5.933,18.743z"/></defs><clipPath id="SVGID_294_"><use overflow="visible" xlink:href="#SVGID_293_"/></clipPath><polygon fill="#FF9803" points="4.045 10.359 4.078 10.279 12.853 14.004 12.853 14.097" clip-path="url(#SVGID_294_)"/></g></g><g><g><defs><path id="SVGID_295_" d="M5.933,18.743c0-3.452,2.393-6.341,5.607-7.107l0.586-4.086c-4.603,0.55-8.171,4.465-8.171,9.216 c0,4.992,3.944,9.069,8.897,9.272C8.997,25.833,5.933,22.646,5.933,18.743z"/></defs><clipPath id="SVGID_296_"><use overflow="visible" xlink:href="#SVGID_295_"/></clipPath><polygon fill="#FF9903" points="4.078 10.279 4.111 10.202 12.853 13.912 12.853 14.004" clip-path="url(#SVGID_296_)"/></g></g><g><g><defs><path id="SVGID_297_" d="M5.933,18.743c0-3.452,2.393-6.341,5.607-7.107l0.586-4.086c-4.603,0.55-8.171,4.465-8.171,9.216 c0,4.992,3.944,9.069,8.897,9.272C8.997,25.833,5.933,22.646,5.933,18.743z"/></defs><clipPath id="SVGID_298_"><use overflow="visible" xlink:href="#SVGID_297_"/></clipPath><polygon fill="#FF9A03" points="4.111 10.202 4.146 10.125 12.853 13.82 12.853 13.912" clip-path="url(#SVGID_298_)"/></g></g><g><g><defs><path id="SVGID_299_" d="M5.933,18.743c0-3.452,2.393-6.341,5.607-7.107l0.586-4.086c-4.603,0.55-8.171,4.465-8.171,9.216 c0,4.992,3.944,9.069,8.897,9.272C8.997,25.833,5.933,22.646,5.933,18.743z"/></defs><clipPath id="SVGID_300_"><use overflow="visible" xlink:href="#SVGID_299_"/></clipPath><polygon fill="#FF9B03" points="4.146 10.125 4.178 10.045 12.853 13.727 12.853 13.82" clip-path="url(#SVGID_300_)"/></g></g><g><g><defs><path id="SVGID_301_" d="M5.933,18.743c0-3.452,2.393-6.341,5.607-7.107l0.586-4.086c-4.603,0.55-8.171,4.465-8.171,9.216 c0,4.992,3.944,9.069,8.897,9.272C8.997,25.833,5.933,22.646,5.933,18.743z"/></defs><clipPath id="SVGID_302_"><use overflow="visible" xlink:href="#SVGID_301_"/></clipPath><polygon fill="#FF9C03" points="4.178 10.045 4.21 9.969 12.853 13.636 12.853 13.727" clip-path="url(#SVGID_302_)"/></g></g><g><g><defs><path id="SVGID_303_" d="M5.933,18.743c0-3.452,2.393-6.341,5.607-7.107l0.586-4.086c-4.603,0.55-8.171,4.465-8.171,9.216 c0,4.992,3.944,9.069,8.897,9.272C8.997,25.833,5.933,22.646,5.933,18.743z"/></defs><clipPath id="SVGID_304_"><use overflow="visible" xlink:href="#SVGID_303_"/></clipPath><polygon fill="#FF9D03" points="4.21 9.969 4.244 9.891 12.853 13.543 12.853 13.636" clip-path="url(#SVGID_304_)"/></g></g><g><g><defs><path id="SVGID_305_" d="M5.933,18.743c0-3.452,2.393-6.341,5.607-7.107l0.586-4.086c-4.603,0.55-8.171,4.465-8.171,9.216 c0,4.992,3.944,9.069,8.897,9.272C8.997,25.833,5.933,22.646,5.933,18.743z"/></defs><clipPath id="SVGID_306_"><use overflow="visible" xlink:href="#SVGID_305_"/></clipPath><polygon fill="#FF9E03" points="4.244 9.891 4.278 9.811 12.853 13.451 12.853 13.543" clip-path="url(#SVGID_306_)"/></g></g><g><g><defs><path id="SVGID_307_" d="M5.933,18.743c0-3.452,2.393-6.341,5.607-7.107l0.586-4.086c-4.603,0.55-8.171,4.465-8.171,9.216 c0,4.992,3.944,9.069,8.897,9.272C8.997,25.833,5.933,22.646,5.933,18.743z"/></defs><clipPath id="SVGID_308_"><use overflow="visible" xlink:href="#SVGID_307_"/></clipPath><polygon fill="#FF9F03" points="4.278 9.811 4.311 9.733 12.853 13.359 12.853 13.451" clip-path="url(#SVGID_308_)"/></g></g><g><g><defs><path id="SVGID_309_" d="M5.933,18.743c0-3.452,2.393-6.341,5.607-7.107l0.586-4.086c-4.603,0.55-8.171,4.465-8.171,9.216 c0,4.992,3.944,9.069,8.897,9.272C8.997,25.833,5.933,22.646,5.933,18.743z"/></defs><clipPath id="SVGID_310_"><use overflow="visible" xlink:href="#SVGID_309_"/></clipPath><polygon fill="#FFA003" points="4.311 9.733 4.345 9.655 12.853 13.267 12.853 13.359" clip-path="url(#SVGID_310_)"/></g></g><g><g><defs><path id="SVGID_311_" d="M5.933,18.743c0-3.452,2.393-6.341,5.607-7.107l0.586-4.086c-4.603,0.55-8.171,4.465-8.171,9.216 c0,4.992,3.944,9.069,8.897,9.272C8.997,25.833,5.933,22.646,5.933,18.743z"/></defs><clipPath id="SVGID_312_"><use overflow="visible" xlink:href="#SVGID_311_"/></clipPath><polygon fill="#FFA103" points="4.345 9.655 4.377 9.576 12.853 13.175 12.853 13.267" clip-path="url(#SVGID_312_)"/></g></g><g><g><defs><path id="SVGID_313_" d="M5.933,18.743c0-3.452,2.393-6.341,5.607-7.107l0.586-4.086c-4.603,0.55-8.171,4.465-8.171,9.216 c0,4.992,3.944,9.069,8.897,9.272C8.997,25.833,5.933,22.646,5.933,18.743z"/></defs><clipPath id="SVGID_314_"><use overflow="visible" xlink:href="#SVGID_313_"/></clipPath><polygon fill="#FFA203" points="4.377 9.576 4.41 9.499 12.853 13.082 12.853 13.175" clip-path="url(#SVGID_314_)"/></g></g><g><g><defs><path id="SVGID_315_" d="M5.933,18.743c0-3.452,2.393-6.341,5.607-7.107l0.586-4.086c-4.603,0.55-8.171,4.465-8.171,9.216 c0,4.992,3.944,9.069,8.897,9.272C8.997,25.833,5.933,22.646,5.933,18.743z"/></defs><clipPath id="SVGID_316_"><use overflow="visible" xlink:href="#SVGID_315_"/></clipPath><polygon fill="#FFA304" points="4.41 9.499 4.444 9.421 12.853 12.989 12.853 13.082" clip-path="url(#SVGID_316_)"/></g></g><g><g><defs><path id="SVGID_317_" d="M5.933,18.743c0-3.452,2.393-6.341,5.607-7.107l0.586-4.086c-4.603,0.55-8.171,4.465-8.171,9.216 c0,4.992,3.944,9.069,8.897,9.272C8.997,25.833,5.933,22.646,5.933,18.743z"/></defs><clipPath id="SVGID_318_"><use overflow="visible" xlink:href="#SVGID_317_"/></clipPath><polygon fill="#FFA404" points="4.444 9.421 4.477 9.342 12.853 12.897 12.853 12.989" clip-path="url(#SVGID_318_)"/></g></g><g><g><defs><path id="SVGID_319_" d="M5.933,18.743c0-3.452,2.393-6.341,5.607-7.107l0.586-4.086c-4.603,0.55-8.171,4.465-8.171,9.216 c0,4.992,3.944,9.069,8.897,9.272C8.997,25.833,5.933,22.646,5.933,18.743z"/></defs><clipPath id="SVGID_320_"><use overflow="visible" xlink:href="#SVGID_319_"/></clipPath><polygon fill="#FFA504" points="4.477 9.342 4.509 9.266 12.853 12.806 12.853 12.897" clip-path="url(#SVGID_320_)"/></g></g><g><g><defs><path id="SVGID_321_" d="M5.933,18.743c0-3.452,2.393-6.341,5.607-7.107l0.586-4.086c-4.603,0.55-8.171,4.465-8.171,9.216 c0,4.992,3.944,9.069,8.897,9.272C8.997,25.833,5.933,22.646,5.933,18.743z"/></defs><clipPath id="SVGID_322_"><use overflow="visible" xlink:href="#SVGID_321_"/></clipPath><polygon fill="#FFA604" points="4.509 9.266 4.541 9.188 12.853 12.712 12.853 12.806" clip-path="url(#SVGID_322_)"/></g></g><g><g><defs><path id="SVGID_323_" d="M5.933,18.743c0-3.452,2.393-6.341,5.607-7.107l0.586-4.086c-4.603,0.55-8.171,4.465-8.171,9.216 c0,4.992,3.944,9.069,8.897,9.272C8.997,25.833,5.933,22.646,5.933,18.743z"/></defs><clipPath id="SVGID_324_"><use overflow="visible" xlink:href="#SVGID_323_"/></clipPath><polygon fill="#FFA704" points="4.541 9.188 4.574 9.108 12.853 12.622 12.853 12.712" clip-path="url(#SVGID_324_)"/></g></g><g><g><defs><path id="SVGID_325_" d="M5.933,18.743c0-3.452,2.393-6.341,5.607-7.107l0.586-4.086c-4.603,0.55-8.171,4.465-8.171,9.216 c0,4.992,3.944,9.069,8.897,9.272C8.997,25.833,5.933,22.646,5.933,18.743z"/></defs><clipPath id="SVGID_326_"><use overflow="visible" xlink:href="#SVGID_325_"/></clipPath><polygon fill="#FFA804" points="4.574 9.108 4.609 9.03 12.853 12.529 12.853 12.622" clip-path="url(#SVGID_326_)"/></g></g><g><g><defs><path id="SVGID_327_" d="M5.933,18.743c0-3.452,2.393-6.341,5.607-7.107l0.586-4.086c-4.603,0.55-8.171,4.465-8.171,9.216 c0,4.992,3.944,9.069,8.897,9.272C8.997,25.833,5.933,22.646,5.933,18.743z"/></defs><clipPath id="SVGID_328_"><use overflow="visible" xlink:href="#SVGID_327_"/></clipPath><polygon fill="#FFA904" points="4.609 9.03 4.642 8.952 12.853 12.436 12.853 12.529" clip-path="url(#SVGID_328_)"/></g></g><g><g><defs><path id="SVGID_329_" d="M5.933,18.743c0-3.452,2.393-6.341,5.607-7.107l0.586-4.086c-4.603,0.55-8.171,4.465-8.171,9.216 c0,4.992,3.944,9.069,8.897,9.272C8.997,25.833,5.933,22.646,5.933,18.743z"/></defs><clipPath id="SVGID_330_"><use overflow="visible" xlink:href="#SVGID_329_"/></clipPath><polygon fill="#FFAA04" points="4.642 8.952 4.676 8.874 12.853 12.345 12.853 12.436" clip-path="url(#SVGID_330_)"/></g></g><g><g><defs><path id="SVGID_331_" d="M5.933,18.743c0-3.452,2.393-6.341,5.607-7.107l0.586-4.086c-4.603,0.55-8.171,4.465-8.171,9.216 c0,4.992,3.944,9.069,8.897,9.272C8.997,25.833,5.933,22.646,5.933,18.743z"/></defs><clipPath id="SVGID_332_"><use overflow="visible" xlink:href="#SVGID_331_"/></clipPath><polygon fill="#FFAB04" points="4.676 8.874 4.707 8.796 12.853 12.253 12.853 12.345" clip-path="url(#SVGID_332_)"/></g></g><g><g><defs><path id="SVGID_333_" d="M5.933,18.743c0-3.452,2.393-6.341,5.607-7.107l0.586-4.086c-4.603,0.55-8.171,4.465-8.171,9.216 c0,4.992,3.944,9.069,8.897,9.272C8.997,25.833,5.933,22.646,5.933,18.743z"/></defs><clipPath id="SVGID_334_"><use overflow="visible" xlink:href="#SVGID_333_"/></clipPath><polygon fill="#FFAC04" points="4.707 8.796 4.741 8.719 12.853 12.159 12.853 12.253" clip-path="url(#SVGID_334_)"/></g></g><g><g><defs><path id="SVGID_335_" d="M5.933,18.743c0-3.452,2.393-6.341,5.607-7.107l0.586-4.086c-4.603,0.55-8.171,4.465-8.171,9.216 c0,4.992,3.944,9.069,8.897,9.272C8.997,25.833,5.933,22.646,5.933,18.743z"/></defs><clipPath id="SVGID_336_"><use overflow="visible" xlink:href="#SVGID_335_"/></clipPath><polygon fill="#FFAD04" points="4.741 8.719 4.776 8.64 12.853 12.068 12.853 12.159" clip-path="url(#SVGID_336_)"/></g></g><g><g><defs><path id="SVGID_337_" d="M5.933,18.743c0-3.452,2.393-6.341,5.607-7.107l0.586-4.086c-4.603,0.55-8.171,4.465-8.171,9.216 c0,4.992,3.944,9.069,8.897,9.272C8.997,25.833,5.933,22.646,5.933,18.743z"/></defs><clipPath id="SVGID_338_"><use overflow="visible" xlink:href="#SVGID_337_"/></clipPath><polygon fill="#FFAE04" points="4.776 8.64 4.808 8.562 12.853 11.975 12.853 12.068" clip-path="url(#SVGID_338_)"/></g></g><g><g><defs><path id="SVGID_339_" d="M5.933,18.743c0-3.452,2.393-6.341,5.607-7.107l0.586-4.086c-4.603,0.55-8.171,4.465-8.171,9.216 c0,4.992,3.944,9.069,8.897,9.272C8.997,25.833,5.933,22.646,5.933,18.743z"/></defs><clipPath id="SVGID_340_"><use overflow="visible" xlink:href="#SVGID_339_"/></clipPath><polygon fill="#FFAF04" points="4.808 8.562 4.843 8.482 12.853 11.883 12.853 11.975" clip-path="url(#SVGID_340_)"/></g></g><g><g><defs><path id="SVGID_341_" d="M5.933,18.743c0-3.452,2.393-6.341,5.607-7.107l0.586-4.086c-4.603,0.55-8.171,4.465-8.171,9.216 c0,4.992,3.944,9.069,8.897,9.272C8.997,25.833,5.933,22.646,5.933,18.743z"/></defs><clipPath id="SVGID_342_"><use overflow="visible" xlink:href="#SVGID_341_"/></clipPath><polygon fill="#FFB004" points="4.843 8.482 4.874 8.405 12.853 11.792 12.853 11.883" clip-path="url(#SVGID_342_)"/></g></g><g><g><defs><path id="SVGID_343_" d="M5.933,18.743c0-3.452,2.393-6.341,5.607-7.107l0.586-4.086c-4.603,0.55-8.171,4.465-8.171,9.216 c0,4.992,3.944,9.069,8.897,9.272C8.997,25.833,5.933,22.646,5.933,18.743z"/></defs><clipPath id="SVGID_344_"><use overflow="visible" xlink:href="#SVGID_343_"/></clipPath><polygon fill="#FFB104" points="4.874 8.405 4.907 8.327 12.853 11.699 12.853 11.792" clip-path="url(#SVGID_344_)"/></g></g><g><g><defs><path id="SVGID_345_" d="M5.933,18.743c0-3.452,2.393-6.341,5.607-7.107l0.586-4.086c-4.603,0.55-8.171,4.465-8.171,9.216 c0,4.992,3.944,9.069,8.897,9.272C8.997,25.833,5.933,22.646,5.933,18.743z"/></defs><clipPath id="SVGID_346_"><use overflow="visible" xlink:href="#SVGID_345_"/></clipPath><polygon fill="#FFB204" points="4.907 8.327 4.941 8.249 12.853 11.607 12.853 11.699" clip-path="url(#SVGID_346_)"/></g></g><g><g><defs><path id="SVGID_347_" d="M5.933,18.743c0-3.452,2.393-6.341,5.607-7.107l0.586-4.086c-4.603,0.55-8.171,4.465-8.171,9.216 c0,4.992,3.944,9.069,8.897,9.272C8.997,25.833,5.933,22.646,5.933,18.743z"/></defs><clipPath id="SVGID_348_"><use overflow="visible" xlink:href="#SVGID_347_"/></clipPath><polygon fill="#FFB304" points="4.941 8.249 4.974 8.172 12.853 11.516 12.853 11.607" clip-path="url(#SVGID_348_)"/></g></g><g><g><defs><path id="SVGID_349_" d="M5.933,18.743c0-3.452,2.393-6.341,5.607-7.107l0.586-4.086c-4.603,0.55-8.171,4.465-8.171,9.216 c0,4.992,3.944,9.069,8.897,9.272C8.997,25.833,5.933,22.646,5.933,18.743z"/></defs><clipPath id="SVGID_350_"><use overflow="visible" xlink:href="#SVGID_349_"/></clipPath><polygon fill="#FFB404" points="4.974 8.172 5.007 8.093 12.853 11.423 12.853 11.516" clip-path="url(#SVGID_350_)"/></g></g><g><g><defs><path id="SVGID_351_" d="M5.933,18.743c0-3.452,2.393-6.341,5.607-7.107l0.586-4.086c-4.603,0.55-8.171,4.465-8.171,9.216 c0,4.992,3.944,9.069,8.897,9.272C8.997,25.833,5.933,22.646,5.933,18.743z"/></defs><clipPath id="SVGID_352_"><use overflow="visible" xlink:href="#SVGID_351_"/></clipPath><polygon fill="#FFB504" points="5.007 8.093 5.041 8.016 12.853 11.33 12.853 11.423" clip-path="url(#SVGID_352_)"/></g></g><g><g><defs><path id="SVGID_353_" d="M5.933,18.743c0-3.452,2.393-6.341,5.607-7.107l0.586-4.086c-4.603,0.55-8.171,4.465-8.171,9.216 c0,4.992,3.944,9.069,8.897,9.272C8.997,25.833,5.933,22.646,5.933,18.743z"/></defs><clipPath id="SVGID_354_"><use overflow="visible" xlink:href="#SVGID_353_"/></clipPath><polygon fill="#FFB604" points="5.041 8.016 5.074 7.936 12.853 11.238 12.853 11.33" clip-path="url(#SVGID_354_)"/></g></g><g><g><defs><path id="SVGID_355_" d="M5.933,18.743c0-3.452,2.393-6.341,5.607-7.107l0.586-4.086c-4.603,0.55-8.171,4.465-8.171,9.216 c0,4.992,3.944,9.069,8.897,9.272C8.997,25.833,5.933,22.646,5.933,18.743z"/></defs><clipPath id="SVGID_356_"><use overflow="visible" xlink:href="#SVGID_355_"/></clipPath><polygon fill="#FFB704" points="5.074 7.936 5.108 7.858 12.853 11.146 12.853 11.238" clip-path="url(#SVGID_356_)"/></g></g><g><g><defs><path id="SVGID_357_" d="M5.933,18.743c0-3.452,2.393-6.341,5.607-7.107l0.586-4.086c-4.603,0.55-8.171,4.465-8.171,9.216 c0,4.992,3.944,9.069,8.897,9.272C8.997,25.833,5.933,22.646,5.933,18.743z"/></defs><clipPath id="SVGID_358_"><use overflow="visible" xlink:href="#SVGID_357_"/></clipPath><polygon fill="#FFB804" points="5.108 7.858 5.14 7.779 12.853 11.054 12.853 11.146" clip-path="url(#SVGID_358_)"/></g></g><g><g><defs><path id="SVGID_359_" d="M5.933,18.743c0-3.452,2.393-6.341,5.607-7.107l0.586-4.086c-4.603,0.55-8.171,4.465-8.171,9.216 c0,4.992,3.944,9.069,8.897,9.272C8.997,25.833,5.933,22.646,5.933,18.743z"/></defs><clipPath id="SVGID_360_"><use overflow="visible" xlink:href="#SVGID_359_"/></clipPath><polygon fill="#FFB904" points="5.14 7.779 5.172 7.702 12.853 10.962 12.853 11.054" clip-path="url(#SVGID_360_)"/></g></g><g><g><defs><path id="SVGID_361_" d="M5.933,18.743c0-3.452,2.393-6.341,5.607-7.107l0.586-4.086c-4.603,0.55-8.171,4.465-8.171,9.216 c0,4.992,3.944,9.069,8.897,9.272C8.997,25.833,5.933,22.646,5.933,18.743z"/></defs><clipPath id="SVGID_362_"><use overflow="visible" xlink:href="#SVGID_361_"/></clipPath><polygon fill="#FFB904" points="5.172 7.702 5.237 7.552 12.853 7.552 12.853 10.962" clip-path="url(#SVGID_362_)"/></g></g></g></g><g><path fill="#F33F33" d="M14.327,14.742l-1.09-7.052l-1.089,7.05c-0.72,0.388-1.21,1.148-1.21,2.023c0,1.27,1.028,2.297,2.297,2.297 c1.27,0,2.298-1.027,2.298-2.297C15.533,15.891,15.044,15.13,14.327,14.742z"/></g></svg>