<svg xmlns="http://www.w3.org/2000/svg" width="300" height="176"><path fill="#505050" stroke="#505050" stroke-width="1.51" d="M122,284L60,297L258,301Z"/><path fill="#7b7b7b" stroke="#7b7b7b" stroke-width="1.51" d="M207,-105L309,-78L400,-86Z"/><path fill="#4a4a4a" stroke="#4a4a4a" stroke-width="1.51" d="M414,154L305,251L417,289Z"/><path fill="#4c4c4c" stroke="#4c4c4c" stroke-width="1.51" d="M414,154L417,289L432,80Z"/><path fill="#5e5e5e" stroke="#5e5e5e" stroke-width="1.51" d="M296,24L432,80L446,-14Z"/><path fill="#6a6a6a" stroke="#6a6a6a" stroke-width="1.51" d="M400,-86L296,24L446,-14Z"/><path fill="#4e4e4e" stroke="#4e4e4e" stroke-width="1.51" d="M432,80L417,289L446,-14Z"/><path fill="#717171" stroke="#717171" stroke-width="1.51" d="M309,-78L296,24L400,-86Z"/><path fill="#4e4e4e" stroke="#4e4e4e" stroke-width="1.51" d="M338,147L305,251L414,154Z"/><path fill="#4f4f4f" stroke="#4f4f4f" stroke-width="1.51" d="M338,147L414,154L432,80Z"/><path fill="#525252" stroke="#525252" stroke-width="1.51" d="M307,92L338,147L432,80Z"/><path fill="#595959" stroke="#595959" stroke-width="1.51" d="M296,24L307,92L432,80Z"/><path fill="#494949" stroke="#494949" stroke-width="1.51" d="M305,251L258,301L417,289Z"/><path fill="#8b8b8b" stroke="#8b8b8b" stroke-width="1.51" d="M-36,-105L147,-87L207,-105Z"/><path fill="#535353" stroke="#535353" stroke-width="1.51" d="M307,92L272,161L338,147Z"/><path fill="#4f4f4f" stroke="#4f4f4f" stroke-width="1.51" d="M272,161L305,251L338,147Z"/><path fill="#585858" stroke="#585858" stroke-width="1.51" d="M296,24L259,114L307,92Z"/><path fill="#545454" stroke="#545454" stroke-width="1.51" d="M259,114L272,161L307,92Z"/><path fill="#707070" stroke="#707070" stroke-width="1.51" d="M213,-31L296,24L309,-78Z"/><path fill="#7a7a7a" stroke="#7a7a7a" stroke-width="1.51" d="M207,-105L213,-31L309,-78Z"/><path fill="#4e4e4e" stroke="#4e4e4e" stroke-width="1.51" d="M272,161L258,301L305,251Z"/><path fill="#515151" stroke="#515151" stroke-width="1.51" d="M134,195L258,301L272,161Z"/><path fill="#5f5f5f" stroke="#5f5f5f" stroke-width="1.51" d="M160,27L259,114L296,24Z"/><path fill="#6a6a6a" stroke="#6a6a6a" stroke-width="1.51" d="M213,-31L160,27L296,24Z"/><path fill="#515151" stroke="#515151" stroke-width="1.51" d="M134,195L122,284L258,301Z"/><path fill="#555" stroke="#555" stroke-width="1.51" d="M259,114L134,195L272,161Z"/><path fill="#5c5c5c" stroke="#5c5c5c" stroke-width="1.51" d="M160,27L122,93L259,114Z"/><path fill="#585858" stroke="#585858" stroke-width="1.51" d="M122,93L134,195L259,114Z"/><path fill="#909090" stroke="#909090" stroke-width="1.51" d="M-36,-105L60,-69L147,-87Z"/><path fill="#7d7d7d" stroke="#7d7d7d" stroke-width="1.51" d="M207,-105L147,-87L213,-31Z"/><path fill="#747474" stroke="#747474" stroke-width="1.51" d="M147,-87L160,27L213,-31Z"/><path fill="#6e6e6e" stroke="#6e6e6e" stroke-width="1.51" d="M43,-25L122,93L160,27Z"/><path fill="#7c7c7c" stroke="#7c7c7c" stroke-width="1.51" d="M147,-87L60,-69L160,27Z"/><path fill="#7d7d7d" stroke="#7d7d7d" stroke-width="1.51" d="M60,-69L43,-25L160,27Z"/><path fill="#5f5f5f" stroke="#5f5f5f" stroke-width="1.51" d="M122,93L46,194L134,195Z"/><path fill="#5b5b5b" stroke="#5b5b5b" stroke-width="1.51" d="M46,194L122,284L134,195Z"/><path fill="#5d5d5d" stroke="#5d5d5d" stroke-width="1.51" d="M46,194L60,297L122,284Z"/><path fill="#707070" stroke="#707070" stroke-width="1.51" d="M43,-25L33,100L122,93Z"/><path fill="#666" stroke="#666" stroke-width="1.51" d="M33,100L46,194L122,93Z"/><path fill="#7e7e7e" stroke="#7e7e7e" stroke-width="1.51" d="M-3,-19L33,100L43,-25Z"/><path fill="#898989" stroke="#898989" stroke-width="1.51" d="M-3,-19L43,-25L60,-69Z"/><path fill="#939393" stroke="#939393" stroke-width="1.51" d="M-36,-105L-3,-19L60,-69Z"/><path fill="#676767" stroke="#676767" stroke-width="1.51" d="M46,194L-54,247L60,297Z"/><path fill="#6d6d6d" stroke="#6d6d6d" stroke-width="1.51" d="M-54,247L-114,280L60,297Z"/><path fill="#7a7a7a" stroke="#7a7a7a" stroke-width="1.51" d="M-3,-19L-56,103L33,100Z"/><path fill="#6f6f6f" stroke="#6f6f6f" stroke-width="1.51" d="M-64,210L-54,247L46,194Z"/><path fill="#6f6f6f" stroke="#6f6f6f" stroke-width="1.51" d="M33,100L-56,103L46,194Z"/><path fill="#717171" stroke="#717171" stroke-width="1.51" d="M-56,103L-64,210L46,194Z"/><path fill="#7a7a7a" stroke="#7a7a7a" stroke-width="1.51" d="M-99,147L-64,210L-56,103Z"/><path fill="#828282" stroke="#828282" stroke-width="1.51" d="M-104,89L-56,103L-3,-19Z"/><path fill="#8e8e8e" stroke="#8e8e8e" stroke-width="1.51" d="M-138,5L-104,89L-3,-19Z"/><path fill="#9e9e9e" stroke="#9e9e9e" stroke-width="1.51" d="M-36,-105L-105,-89L-3,-19Z"/><path fill="#9b9b9b" stroke="#9b9b9b" stroke-width="1.51" d="M-105,-89L-138,5L-3,-19Z"/><path fill="#7f7f7f" stroke="#7f7f7f" stroke-width="1.51" d="M-104,89L-99,147L-56,103Z"/><path fill="#757575" stroke="#757575" stroke-width="1.51" d="M-64,210L-114,280L-54,247Z"/><path fill="#797979" stroke="#797979" stroke-width="1.51" d="M-99,147L-114,280L-64,210Z"/><path fill="#868686" stroke="#868686" stroke-width="1.51" d="M-104,89L-138,5L-99,147Z"/><path fill="#828282" stroke="#828282" stroke-width="1.51" d="M-138,5L-114,280L-99,147Z"/></svg>